<svg id="visual" viewBox="0 0 300 300" width="300" height="300" xmlns="http://www.w3.org/2000/svg" xmlns:xlink="http://www.w3.org/1999/xlink" version="1.1"><rect x="0" y="0" width="300" height="300" fill="#D2B48C"></rect><path d="M0 18L4.5 18.3C9 18.7 18 19.3 27.2 18.3C36.3 17.3 45.7 14.7 54.8 14C64 13.3 73 14.7 82 16.3C91 18 100 20 109 20.2C118 20.3 127 18.7 136.2 18.7C145.3 18.7 154.7 20.3 163.8 19.8C173 19.3 182 16.7 191 16.3C200 16 209 18 218 19C227 20 236 20 245.2 20C254.3 20 263.7 20 272.8 19.2C282 18.3 291 16.7 295.5 15.8L300 15L300 0L295.5 0C291 0 282 0 272.8 0C263.7 0 254.3 0 245.2 0C236 0 227 0 218 0C209 0 200 0 191 0C182 0 173 0 163.8 0C154.7 0 145.3 0 136.2 0C127 0 118 0 109 0C100 0 91 0 82 0C73 0 64 0 54.8 0C45.7 0 36.3 0 27.2 0C18 0 9 0 4.5 0L0 0Z" fill="#876543"></path><path d="M0 17L4.5 16.2C9 15.3 18 13.7 27.2 12.8C36.3 12 45.7 12 54.8 12.2C64 12.3 73 12.7 82 13.2C91 13.7 100 14.3 109 15.2C118 16 127 17 136.2 17.8C145.3 18.7 154.7 19.3 163.8 18C173 16.7 182 13.3 191 12.2C200 11 209 12 218 13.2C227 14.3 236 15.7 245.2 15.2C254.3 14.7 263.7 12.3 272.8 12C282 11.7 291 13.3 295.5 14.2L300 15L300 0L295.5 0C291 0 282 0 272.8 0C263.7 0 254.3 0 245.2 0C236 0 227 0 218 0C209 0 200 0 191 0C182 0 173 0 163.8 0C154.7 0 145.3 0 136.2 0C127 0 118 0 109 0C100 0 91 0 82 0C73 0 64 0 54.8 0C45.7 0 36.3 0 27.2 0C18 0 9 0 4.5 0L0 0Z" fill="#7e5c3a"></path><path d="M0 14L4.5 14C9 14 18 14 27.2 14.5C36.3 15 45.7 16 54.8 16.2C64 16.3 73 15.7 82 15.5C91 15.3 100 15.7 109 15.3C118 15 127 14 136.2 13.2C145.3 12.3 154.7 11.7 163.8 11.2C173 10.7 182 10.3 191 11C200 11.7 209 13.3 218 13.8C227 14.3 236 13.7 245.2 12.7C254.3 11.7 263.7 10.3 272.8 10C282 9.7 291 10.3 295.5 10.7L300 11L300 0L295.5 0C291 0 282 0 272.8 0C263.7 0 254.3 0 245.2 0C236 0 227 0 218 0C209 0 200 0 191 0C182 0 173 0 163.8 0C154.7 0 145.3 0 136.2 0C127 0 118 0 109 0C100 0 91 0 82 0C73 0 64 0 54.8 0C45.7 0 36.3 0 27.2 0C18 0 9 0 4.5 0L0 0Z" fill="#765432"></path><path d="M0 7L4.5 7.5C9 8 18 9 27.2 9.2C36.3 9.3 45.7 8.7 54.8 9.3C64 10 73 12 82 12.7C91 13.3 100 12.7 109 11.5C118 10.3 127 8.7 136.2 8C145.3 7.3 154.7 7.7 163.8 8.5C173 9.3 182 10.7 191 11.7C200 12.7 209 13.3 218 12.5C227 11.7 236 9.3 245.2 9.2C254.3 9 263.7 11 272.8 11.7C282 12.3 291 11.7 295.5 11.3L300 11L300 0L295.5 0C291 0 282 0 272.8 0C263.7 0 254.3 0 245.2 0C236 0 227 0 218 0C209 0 200 0 191 0C182 0 173 0 163.8 0C154.7 0 145.3 0 136.2 0C127 0 118 0 109 0C100 0 91 0 82 0C73 0 64 0 54.8 0C45.7 0 36.3 0 27.2 0C18 0 9 0 4.5 0L0 0Z" fill="#6d4b29"></path><path d="M0 10L4.5 9.2C9 8.3 18 6.7 27.2 6.3C36.3 6 45.7 7 54.8 7.7C64 8.3 73 8.7 82 8.8C91 9 100 9 109 9.2C118 9.3 127 9.7 136.2 9.8C145.3 10 154.7 10 163.8 9.3C173 8.7 182 7.3 191 7C200 6.7 209 7.3 218 7.7C227 8 236 8 245.2 7.8C254.3 7.7 263.7 7.3 272.8 7.3C282 7.3 291 7.7 295.5 7.8L300 8L300 0L295.5 0C291 0 282 0 272.8 0C263.7 0 254.3 0 245.2 0C236 0 227 0 218 0C209 0 200 0 191 0C182 0 173 0 163.8 0C154.7 0 145.3 0 136.2 0C127 0 118 0 109 0C100 0 91 0 82 0C73 0 64 0 54.8 0C45.7 0 36.3 0 27.2 0C18 0 9 0 4.5 0L0 0Z" fill="#654321"></path><path d="M0 3L4.5 3.3C9 3.7 18 4.3 27.2 4.8C36.3 5.3 45.7 5.7 54.8 5.7C64 5.7 73 5.3 82 5.2C91 5 100 5 109 5.2C118 5.3 127 5.7 136.2 6C145.3 6.3 154.7 6.7 163.8 6.5C173 6.3 182 5.7 191 5.5C200 5.3 209 5.7 218 5.8C227 6 236 6 245.2 6C254.3 6 263.7 6 272.8 5.5C282 5 291 4 295.5 3.5L300 3L300 0L295.5 0C291 0 282 0 272.8 0C263.7 0 254.3 0 245.2 0C236 0 227 0 218 0C209 0 200 0 191 0C182 0 173 0 163.8 0C154.7 0 145.3 0 136.2 0C127 0 118 0 109 0C100 0 91 0 82 0C73 0 64 0 54.8 0C45.7 0 36.3 0 27.2 0C18 0 9 0 4.5 0L0 0Z" fill="#5c3a18"></path><path d="M0 2L4.5 1.8C9 1.7 18 1.3 27.2 1.2C36.3 1 45.7 1 54.8 1.3C64 1.7 73 2.3 82 2.7C91 3 100 3 109 3C118 3 127 3 136.2 2.8C145.3 2.7 154.7 2.3 163.8 2C173 1.7 182 1.3 191 1.3C200 1.3 209 1.7 218 2C227 2.3 236 2.7 245.2 3C254.3 3.3 263.7 3.7 272.8 3.7C282 3.7 291 3.3 295.5 3.2L300 3L300 0L295.5 0C291 0 282 0 272.8 0C263.7 0 254.3 0 245.2 0C236 0 227 0 218 0C209 0 200 0 191 0C182 0 173 0 163.8 0C154.7 0 145.3 0 136.2 0C127 0 118 0 109 0C100 0 91 0 82 0C73 0 64 0 54.8 0C45.7 0 36.3 0 27.2 0C18 0 9 0 4.5 0L0 0Z" fill="#543210"></path></svg>