<svg id="visual" viewBox="0 0 300 300" width="300" height="300" xmlns="http://www.w3.org/2000/svg" xmlns:xlink="http://www.w3.org/1999/xlink" version="1.1"><rect x="0" y="0" width="300" height="300" fill="#D2B48C"></rect><path d="M0 57L4.5 57.8C9 58.7 18 60.3 27.2 57.3C36.3 54.3 45.7 46.7 54.8 44.7C64 42.7 73 46.3 82 51.2C91 56 100 62 109 62.5C118 63 127 58 136.2 58.2C145.3 58.3 154.7 63.7 163.8 62.2C173 60.7 182 52.3 191 51C200 49.7 209 55.3 218 58.3C227 61.3 236 61.7 245.2 62C254.3 62.3 263.7 62.7 272.8 60C282 57.3 291 51.7 295.5 48.8L300 46L300 0L295.5 0C291 0 282 0 272.8 0C263.7 0 254.3 0 245.2 0C236 0 227 0 218 0C209 0 200 0 191 0C182 0 173 0 163.8 0C154.7 0 145.3 0 136.2 0C127 0 118 0 109 0C100 0 91 0 82 0C73 0 64 0 54.8 0C45.7 0 36.3 0 27.2 0C18 0 9 0 4.5 0L0 0Z" fill="#876543"></path><path d="M0 52L4.5 49.7C9 47.3 18 42.7 27.2 40.5C36.3 38.3 45.7 38.7 54.8 39C64 39.3 73 39.7 82 41C91 42.3 100 44.7 109 47.2C118 49.7 127 52.3 136.2 54.7C145.3 57 154.7 59 163.8 55.3C173 51.7 182 42.3 191 39.2C200 36 209 39 218 42.2C227 45.3 236 48.7 245.2 46.8C254.3 45 263.7 38 272.8 37.3C282 36.7 291 42.3 295.5 45.2L300 48L300 0L295.5 0C291 0 282 0 272.8 0C263.7 0 254.3 0 245.2 0C236 0 227 0 218 0C209 0 200 0 191 0C182 0 173 0 163.8 0C154.7 0 145.3 0 136.2 0C127 0 118 0 109 0C100 0 91 0 82 0C73 0 64 0 54.8 0C45.7 0 36.3 0 27.2 0C18 0 9 0 4.5 0L0 0Z" fill="#7e5c3a"></path><path d="M0 44L4.5 44.2C9 44.3 18 44.7 27.2 46C36.3 47.3 45.7 49.7 54.8 50.2C64 50.7 73 49.3 82 49.2C91 49 100 50 109 49C118 48 127 45 136.2 42.2C145.3 39.3 154.7 36.7 163.8 35.2C173 33.7 182 33.3 191 35.3C200 37.3 209 41.7 218 43C227 44.3 236 42.7 245.2 39.7C254.3 36.7 263.7 32.3 272.8 31.3C282 30.3 291 32.7 295.5 33.8L300 35L300 0L295.5 0C291 0 282 0 272.8 0C263.7 0 254.3 0 245.2 0C236 0 227 0 218 0C209 0 200 0 191 0C182 0 173 0 163.8 0C154.7 0 145.3 0 136.2 0C127 0 118 0 109 0C100 0 91 0 82 0C73 0 64 0 54.8 0C45.7 0 36.3 0 27.2 0C18 0 9 0 4.5 0L0 0Z" fill="#765432"></path><path d="M0 24L4.5 25.3C9 26.7 18 29.3 27.2 29.8C36.3 30.3 45.7 28.7 54.8 30.5C64 32.3 73 37.7 82 39.7C91 41.7 100 40.3 109 37C118 33.7 127 28.3 136.2 26.2C145.3 24 154.7 25 163.8 27.3C173 29.7 182 33.3 191 36.2C200 39 209 41 218 38.5C227 36 236 29 245.2 28.8C254.3 28.7 263.7 35.3 272.8 37.5C282 39.7 291 37.3 295.5 36.2L300 35L300 0L295.5 0C291 0 282 0 272.8 0C263.7 0 254.3 0 245.2 0C236 0 227 0 218 0C209 0 200 0 191 0C182 0 173 0 163.8 0C154.7 0 145.3 0 136.2 0C127 0 118 0 109 0C100 0 91 0 82 0C73 0 64 0 54.8 0C45.7 0 36.3 0 27.2 0C18 0 9 0 4.5 0L0 0Z" fill="#6d4b29"></path><path d="M0 32L4.5 29.5C9 27 18 22 27.2 21.2C36.3 20.3 45.7 23.7 54.8 25.5C64 27.3 73 27.7 82 27.8C91 28 100 28 109 28.7C118 29.3 127 30.7 136.2 31.3C145.3 32 154.7 32 163.8 29.8C173 27.7 182 23.3 191 22.2C200 21 209 23 218 24C227 25 236 25 245.2 24.5C254.3 24 263.7 23 272.8 23C282 23 291 24 295.5 24.5L300 25L300 0L295.5 0C291 0 282 0 272.8 0C263.7 0 254.3 0 245.2 0C236 0 227 0 218 0C209 0 200 0 191 0C182 0 173 0 163.8 0C154.7 0 145.3 0 136.2 0C127 0 118 0 109 0C100 0 91 0 82 0C73 0 64 0 54.8 0C45.7 0 36.3 0 27.2 0C18 0 9 0 4.5 0L0 0Z" fill="#654321"></path><path d="M0 11L4.5 11.8C9 12.7 18 14.3 27.2 15.8C36.3 17.3 45.7 18.7 54.8 19C64 19.3 73 18.7 82 18C91 17.3 100 16.7 109 16.8C118 17 127 18 136.2 19.2C145.3 20.3 154.7 21.7 163.8 21.3C173 21 182 19 191 18.3C200 17.7 209 18.3 218 18.8C227 19.3 236 19.7 245.2 20C254.3 20.3 263.7 20.7 272.8 19.3C282 18 291 15 295.5 13.5L300 12L300 0L295.5 0C291 0 282 0 272.8 0C263.7 0 254.3 0 245.2 0C236 0 227 0 218 0C209 0 200 0 191 0C182 0 173 0 163.8 0C154.7 0 145.3 0 136.2 0C127 0 118 0 109 0C100 0 91 0 82 0C73 0 64 0 54.8 0C45.7 0 36.3 0 27.2 0C18 0 9 0 4.5 0L0 0Z" fill="#5c3a18"></path><path d="M0 9L4.5 8.3C9 7.7 18 6.3 27.2 5.8C36.3 5.3 45.7 5.7 54.8 6.8C64 8 73 10 82 11C91 12 100 12 109 12C118 12 127 12 136.2 11.3C145.3 10.7 154.7 9.3 163.8 8.2C173 7 182 6 191 6C200 6 209 7 218 8C227 9 236 10 245.2 11C254.3 12 263.7 13 272.8 12.8C282 12.7 291 11.3 295.5 10.7L300 10L300 0L295.5 0C291 0 282 0 272.8 0C263.7 0 254.3 0 245.2 0C236 0 227 0 218 0C209 0 200 0 191 0C182 0 173 0 163.8 0C154.7 0 145.3 0 136.2 0C127 0 118 0 109 0C100 0 91 0 82 0C73 0 64 0 54.8 0C45.7 0 36.3 0 27.2 0C18 0 9 0 4.5 0L0 0Z" fill="#543210"></path></svg>