<svg id="visual" viewBox="0 0 300 300" width="300" height="300" xmlns="http://www.w3.org/2000/svg" xmlns:xlink="http://www.w3.org/1999/xlink" version="1.1"><path d="M0 37L4.5 37.7C9 38.3 18 39.7 27.2 37.7C36.3 35.7 45.7 30.3 54.8 29C64 27.7 73 30.3 82 33.7C91 37 100 41 109 41.3C118 41.7 127 38.3 136.2 38.5C145.3 38.7 154.7 42.3 163.8 41.3C173 40.3 182 34.7 191 33.7C200 32.7 209 36.3 218 38.3C227 40.3 236 40.7 245.2 41C254.3 41.3 263.7 41.7 272.8 40C282 38.3 291 34.7 295.5 32.8L300 31L300 0L295.5 0C291 0 282 0 272.8 0C263.7 0 254.3 0 245.2 0C236 0 227 0 218 0C209 0 200 0 191 0C182 0 173 0 163.8 0C154.7 0 145.3 0 136.2 0C127 0 118 0 109 0C100 0 91 0 82 0C73 0 64 0 54.8 0C45.7 0 36.3 0 27.2 0C18 0 9 0 4.5 0L0 0Z" fill="#876543"></path><path d="M0 34L4.5 32.5C9 31 18 28 27.2 26.7C36.3 25.3 45.7 25.7 54.8 25.8C64 26 73 26 82 26.8C91 27.7 100 29.3 109 31C118 32.7 127 34.3 136.2 35.8C145.3 37.3 154.7 38.7 163.8 36.3C173 34 182 28 191 25.8C200 23.7 209 25.3 218 27.3C227 29.3 236 31.7 245.2 30.7C254.3 29.7 263.7 25.3 272.8 25C282 24.7 291 28.3 295.5 30.2L300 32L300 0L295.5 0C291 0 282 0 272.8 0C263.7 0 254.3 0 245.2 0C236 0 227 0 218 0C209 0 200 0 191 0C182 0 173 0 163.8 0C154.7 0 145.3 0 136.2 0C127 0 118 0 109 0C100 0 91 0 82 0C73 0 64 0 54.8 0C45.7 0 36.3 0 27.2 0C18 0 9 0 4.5 0L0 0Z" fill="#7e5c3a"></path><path d="M0 29L4.5 29.2C9 29.3 18 29.7 27.2 30.7C36.3 31.7 45.7 33.3 54.8 33.7C64 34 73 33 82 32.8C91 32.7 100 33.3 109 32.7C118 32 127 30 136.2 28C145.3 26 154.7 24 163.8 22.8C173 21.7 182 21.3 191 22.7C200 24 209 27 218 28C227 29 236 28 245.2 26.2C254.3 24.3 263.7 21.7 272.8 21C282 20.3 291 21.7 295.5 22.3L300 23L300 0L295.5 0C291 0 282 0 272.8 0C263.7 0 254.3 0 245.2 0C236 0 227 0 218 0C209 0 200 0 191 0C182 0 173 0 163.8 0C154.7 0 145.3 0 136.2 0C127 0 118 0 109 0C100 0 91 0 82 0C73 0 64 0 54.8 0C45.7 0 36.3 0 27.2 0C18 0 9 0 4.5 0L0 0Z" fill="#765432"></path><path d="M0 16L4.5 16.8C9 17.7 18 19.3 27.2 19.7C36.3 20 45.7 19 54.8 20.2C64 21.3 73 24.7 82 25.8C91 27 100 26 109 23.8C118 21.7 127 18.3 136.2 17C145.3 15.7 154.7 16.3 163.8 18C173 19.7 182 22.3 191 24.2C200 26 209 27 218 25.2C227 23.3 236 18.7 245.2 18.7C254.3 18.7 263.7 23.3 272.8 24.8C282 26.3 291 24.7 295.5 23.8L300 23L300 0L295.5 0C291 0 282 0 272.8 0C263.7 0 254.3 0 245.2 0C236 0 227 0 218 0C209 0 200 0 191 0C182 0 173 0 163.8 0C154.7 0 145.3 0 136.2 0C127 0 118 0 109 0C100 0 91 0 82 0C73 0 64 0 54.8 0C45.7 0 36.3 0 27.2 0C18 0 9 0 4.5 0L0 0Z" fill="#6d4b29"></path><path d="M0 21L4.5 19.3C9 17.7 18 14.3 27.2 13.8C36.3 13.3 45.7 15.7 54.8 16.8C64 18 73 18 82 18C91 18 100 18 109 18.5C118 19 127 20 136.2 20.5C145.3 21 154.7 21 163.8 19.7C173 18.3 182 15.7 191 14.8C200 14 209 15 218 15.5C227 16 236 16 245.2 15.8C254.3 15.7 263.7 15.3 272.8 15.5C282 15.7 291 16.3 295.5 16.7L300 17L300 0L295.5 0C291 0 282 0 272.8 0C263.7 0 254.3 0 245.2 0C236 0 227 0 218 0C209 0 200 0 191 0C182 0 173 0 163.8 0C154.7 0 145.3 0 136.2 0C127 0 118 0 109 0C100 0 91 0 82 0C73 0 64 0 54.8 0C45.7 0 36.3 0 27.2 0C18 0 9 0 4.5 0L0 0Z" fill="#654321"></path><path d="M0 7L4.5 7.5C9 8 18 9 27.2 10C36.3 11 45.7 12 54.8 12.3C64 12.7 73 12.3 82 11.8C91 11.3 100 10.7 109 10.7C118 10.7 127 11.3 136.2 12.2C145.3 13 154.7 14 163.8 13.8C173 13.7 182 12.3 191 12C200 11.7 209 12.3 218 12.7C227 13 236 13 245.2 13.2C254.3 13.3 263.7 13.7 272.8 12.8C282 12 291 10 295.5 9L300 8L300 0L295.5 0C291 0 282 0 272.8 0C263.7 0 254.3 0 245.2 0C236 0 227 0 218 0C209 0 200 0 191 0C182 0 173 0 163.8 0C154.7 0 145.3 0 136.2 0C127 0 118 0 109 0C100 0 91 0 82 0C73 0 64 0 54.8 0C45.7 0 36.3 0 27.2 0C18 0 9 0 4.5 0L0 0Z" fill="#5c3a18"></path><path d="M0 6L4.5 5.5C9 5 18 4 27.2 3.7C36.3 3.3 45.7 3.7 54.8 4.5C64 5.3 73 6.7 82 7.3C91 8 100 8 109 8C118 8 127 8 136.2 7.5C145.3 7 154.7 6 163.8 5.2C173 4.3 182 3.7 191 3.7C200 3.7 209 4.3 218 5C227 5.7 236 6.3 245.2 7C254.3 7.7 263.7 8.3 272.8 8.3C282 8.3 291 7.7 295.5 7.3L300 7L300 0L295.5 0C291 0 282 0 272.8 0C263.7 0 254.3 0 245.2 0C236 0 227 0 218 0C209 0 200 0 191 0C182 0 173 0 163.8 0C154.7 0 145.3 0 136.2 0C127 0 118 0 109 0C100 0 91 0 82 0C73 0 64 0 54.8 0C45.7 0 36.3 0 27.2 0C18 0 9 0 4.5 0L0 0Z" fill="#543210"></path></svg>