<?xml version="1.0" standalone="no"?>
<!DOCTYPE svg PUBLIC "-//W3C//DTD SVG 20010904//EN"
 "http://www.w3.org/TR/2001/REC-SVG-20010904/DTD/svg10.dtd">
<svg version="1.0" xmlns="http://www.w3.org/2000/svg"
 width="280.000000pt" height="280.000000pt" viewBox="0 0 280.000000 280.000000"
 preserveAspectRatio="xMidYMid meet">
<metadata>
Created by potrace 1.14, written by Peter Selinger 2001-2017
</metadata>
<g transform="translate(0.000000,280.000000) scale(0.100000,-0.100000)"
fill="#000000" stroke="none">
<path d="M825 2500 c3 -4 -2 -11 -10 -14 -8 -3 -14 -9 -13 -13 3 -13 -25 -63
-35 -63 -5 0 -7 -7 -3 -15 3 -8 1 -15 -4 -15 -5 0 -14 -10 -21 -21 -9 -17 -8
-20 3 -14 8 4 8 2 -2 -7 -8 -7 -21 -24 -28 -37 -12 -20 -12 -25 0 -33 9 -6 8
-8 -7 -6 -15 2 -20 -3 -19 -19 0 -12 -3 -20 -6 -18 -10 6 -32 -44 -24 -56 3
-5 2 -9 -3 -8 -20 3 -27 -2 -13 -11 13 -8 13 -10 -2 -10 -12 0 -16 -6 -12 -24
2 -14 0 -27 -6 -31 -6 -4 -7 1 -3 11 4 11 3 15 -5 10 -6 -4 -14 -22 -18 -41
-3 -19 -10 -35 -15 -35 -5 0 -9 -9 -9 -21 0 -11 -3 -18 -7 -16 -5 3 -8 -6 -8
-19 0 -13 2 -24 5 -24 3 0 6 -8 7 -17 2 -27 21 -73 31 -73 4 0 8 -10 9 -22 1
-12 9 -25 17 -30 8 -5 13 -15 10 -23 -4 -8 -1 -15 7 -15 7 0 9 -3 6 -7 -4 -3
1 -12 11 -20 9 -8 11 -12 5 -8 -20 10 -15 -2 10 -26 12 -12 16 -19 10 -15 -10
5 -10 1 -4 -16 5 -13 14 -22 19 -21 5 1 8 -6 5 -16 -3 -10 1 -22 8 -26 7 -5
10 -4 5 3 -3 6 -2 13 3 17 6 3 8 -4 6 -16 -6 -29 22 -82 38 -72 8 4 8 2 -1 -9
-11 -14 -10 -18 5 -27 10 -6 15 -11 10 -11 -4 0 0 -14 8 -30 9 -17 20 -28 24
-25 5 3 7 -4 4 -15 -3 -12 0 -20 7 -20 7 0 10 -6 7 -14 -3 -8 3 -23 14 -35 10
-11 18 -24 17 -28 -3 -12 32 -74 51 -92 9 -9 11 -12 4 -7 -21 14 -15 -1 10
-25 12 -12 16 -19 10 -15 -9 5 -11 2 -7 -8 3 -9 9 -14 13 -12 4 3 13 -5 21
-17 12 -20 12 -21 -4 -8 -14 12 -16 12 -10 -3 3 -9 10 -16 16 -16 5 0 6 -4 3
-10 -3 -5 1 -10 9 -10 9 0 16 -5 16 -11 0 -5 -5 -7 -11 -4 -15 10 30 -75 50
-94 9 -9 10 -11 2 -6 -11 8 -11 4 2 -22 9 -17 21 -35 27 -38 6 -4 8 -11 5 -16
-4 -5 2 -9 12 -10 12 0 13 -2 5 -6 -10 -4 -8 -9 6 -19 13 -9 18 -21 15 -34 -4
-15 0 -20 13 -20 16 0 17 -2 4 -10 -11 -7 -11 -10 -2 -10 8 0 10 -5 6 -12 -5
-7 -2 -9 8 -6 8 4 15 0 15 -8 0 -7 -5 -11 -10 -7 -5 3 -4 -4 2 -16 7 -11 14
-21 17 -21 3 0 2 6 -2 13 -4 7 -3 8 2 4 5 -5 9 -14 9 -20 1 -23 27 -87 36 -87
5 0 9 -9 9 -20 0 -11 5 -20 11 -20 5 0 7 6 3 13 -4 6 -3 8 1 4 13 -11 15 -38
3 -31 -7 4 -8 2 -4 -4 4 -7 15 -12 24 -12 15 0 15 -2 2 -10 -14 -9 -7 -15 14
-11 5 1 4 -5 -4 -13 -9 -12 -9 -16 -1 -16 7 0 9 -5 6 -10 -3 -6 1 -10 9 -10
10 0 13 -6 9 -17 -4 -10 -2 -14 4 -10 6 4 14 0 17 -9 3 -8 2 -13 -3 -10 -5 4
-4 -5 2 -19 7 -14 18 -23 25 -20 6 2 12 0 12 -5 0 -6 -5 -10 -11 -10 -5 0 -7
-5 -4 -10 4 -6 10 -8 14 -6 4 3 8 -4 8 -15 1 -10 8 -26 16 -34 9 -8 17 -19 19
-25 1 -5 14 -11 28 -12 20 -2 26 3 35 30 6 18 14 30 17 27 3 -3 8 1 12 10 3 9
2 13 -4 10 -6 -3 -7 1 -4 9 3 9 10 13 15 10 5 -3 9 7 9 21 0 14 4 24 8 21 11
-7 44 62 37 75 -4 5 1 9 11 9 11 0 15 6 11 20 -3 13 -1 18 6 13 7 -4 8 0 4 11
-4 9 -3 15 2 12 11 -7 23 22 16 35 -4 5 0 6 7 4 9 -4 14 2 15 15 1 13 -2 18
-10 13 -7 -4 -5 2 3 13 22 29 24 30 17 12 -10 -29 1 -20 19 15 14 25 14 30 3
22 -8 -5 -8 -3 1 5 9 9 16 24 14 34 -1 10 0 15 3 12 9 -9 34 46 28 61 -2 8 0
11 5 8 6 -4 8 7 5 30 -5 41 -13 57 -25 50 -4 -3 -6 5 -2 17 4 15 2 19 -7 13
-10 -6 -11 -2 -6 15 5 15 3 20 -3 16 -6 -3 -13 -2 -17 4 -3 5 0 10 7 10 9 0 9
3 -2 10 -8 5 -10 10 -5 10 6 0 1 7 -9 15 -11 8 -16 15 -10 15 5 0 0 7 -10 15
-14 11 -16 15 -5 15 11 0 11 2 1 9 -7 4 -15 17 -16 27 -2 10 -8 19 -14 19 -6
0 -14 4 -19 9 -5 5 -3 6 5 2 17 -10 15 4 -8 42 -11 17 -17 32 -15 32 3 0 1 9
-5 20 -6 11 -15 18 -20 15 -5 -3 -12 0 -16 6 -4 8 -3 9 4 5 7 -4 12 -4 12 -1
0 14 -44 91 -59 103 -9 8 -10 11 -4 7 9 -4 11 -1 7 9 -3 9 -10 14 -14 11 -4
-3 -11 2 -14 11 -3 8 -2 12 4 9 6 -3 7 1 4 9 -3 9 -10 13 -16 10 -5 -3 -8 0
-6 7 3 17 -43 119 -54 119 -4 0 -7 5 -5 12 1 7 -3 12 -10 13 -6 0 -15 4 -20 9
-5 5 -3 6 5 2 7 -4 12 -1 12 9 0 10 -5 13 -12 9 -7 -4 -8 -3 -4 4 8 13 -10 51
-33 70 -9 8 -10 11 -4 7 9 -4 11 -1 7 9 -3 9 -12 16 -20 16 -8 0 -14 5 -14 11
0 5 4 7 10 4 6 -3 7 1 4 9 -3 9 -9 16 -13 16 -4 0 -15 23 -26 50 -11 30 -26
50 -35 50 -13 0 -13 1 0 10 10 6 11 10 3 10 -7 0 -13 9 -13 20 0 11 -5 20 -11
20 -5 0 -7 -6 -3 -12 4 -7 3 -9 -2 -5 -4 4 -9 18 -9 30 0 14 -5 21 -14 19 -12
-3 -12 -1 0 14 12 16 12 17 -2 12 -12 -5 -16 -2 -12 10 2 9 -3 26 -12 37 -9
11 -13 14 -9 6 4 -9 3 -12 -4 -7 -6 4 -9 13 -6 20 7 18 -44 119 -55 111 -5 -3
-7 3 -4 14 3 10 -1 22 -8 26 -8 6 -10 4 -4 -5 5 -8 4 -11 -3 -6 -6 4 -9 12 -6
19 6 17 -22 72 -38 72 -6 0 -13 7 -15 15 -4 13 -3 13 6 0 10 -13 11 -13 11 0
-1 20 -25 51 -34 43 -4 -4 -4 1 0 11 6 15 4 17 -7 11 -8 -4 -11 -5 -7 0 4 4 2
15 -5 23 -10 13 -9 15 3 8 8 -4 7 -1 -3 7 -10 9 -19 19 -20 24 -1 4 -5 7 -8 6
-4 -1 -6 8 -5 20 1 13 -4 21 -11 20 -7 -2 -12 0 -11 5 4 19 -19 47 -39 48 -13
1 -20 -2 -18 -6z m483 -871 c-3 -8 -7 -3 -11 10 -4 17 -3 21 5 13 5 -5 8 -16
6 -23z m60 -114 c-3 -3 -9 2 -12 12 -6 14 -5 15 5 6 7 -7 10 -15 7 -18z m-484
-201 c3 -8 2 -12 -4 -9 -6 3 -10 10 -10 16 0 14 7 11 14 -7z m604 -39 c-3 -3
-9 2 -12 12 -6 14 -5 15 5 6 7 -7 10 -15 7 -18z m-584 -1 c3 -8 2 -12 -4 -9
-6 3 -10 10 -10 16 0 14 7 11 14 -7z m621 -54 c3 -5 1 -10 -4 -10 -6 0 -11 5
-11 10 0 6 2 10 4 10 3 0 8 -4 11 -10z m-501 -186 c3 -8 2 -12 -4 -9 -6 3 -10
10 -10 16 0 14 7 11 14 -7z m41 -74 c3 -5 1 -10 -4 -10 -6 0 -11 5 -11 10 0 6
2 10 4 10 3 0 8 -4 11 -10z"/>
<path d="M1953 2503 c-7 -2 -13 -11 -13 -19 0 -8 -5 -14 -11 -14 -6 0 -9 -7
-5 -15 3 -8 2 -15 -3 -15 -5 0 -16 -12 -26 -26 -12 -18 -13 -24 -4 -19 8 3 7
1 -2 -7 -9 -7 -17 -16 -17 -21 -1 -4 -8 -20 -16 -36 -9 -16 -12 -32 -8 -36 4
-5 2 -5 -5 -1 -13 7 -28 -28 -18 -44 4 -6 -1 -7 -12 -3 -10 3 -15 3 -11 -2 4
-4 3 -13 -2 -20 -27 -33 -87 -164 -77 -169 7 -2 5 -5 -4 -5 -9 -1 -20 -8 -23
-17 -10 -25 -7 -36 7 -28 7 4 9 3 4 -2 -5 -5 -13 -10 -18 -10 -22 -3 -23 -5
-9 -14 13 -8 12 -10 -4 -10 -15 0 -16 -3 -6 -15 11 -13 10 -14 -5 -9 -13 5
-16 4 -11 -4 4 -7 2 -12 -4 -12 -6 0 -8 -4 -5 -10 3 -5 3 -10 -2 -10 -11 0
-34 -51 -27 -61 3 -5 0 -9 -6 -9 -6 0 -8 -4 -5 -10 3 -5 1 -10 -5 -10 -7 0
-10 -7 -6 -15 3 -8 0 -14 -7 -12 -7 1 -12 -5 -12 -13 0 -8 -6 -21 -12 -28 -7
-7 -13 -22 -13 -32 0 -10 -4 -21 -9 -25 -10 -6 -8 -51 2 -62 4 -3 7 -17 7 -29
0 -13 5 -26 12 -30 7 -5 8 -2 3 7 -5 8 -4 11 1 6 4 -4 9 -18 9 -30 0 -12 5
-21 11 -20 6 1 10 -9 8 -22 -1 -14 2 -25 7 -25 5 0 9 -7 9 -16 0 -8 4 -13 9
-9 5 3 13 0 17 -6 5 -8 3 -9 -6 -4 -16 10 -3 -33 16 -53 8 -7 14 -18 14 -23 0
-6 4 -8 9 -5 5 4 7 -2 4 -13 -3 -10 0 -22 6 -25 6 -4 11 -2 11 5 0 7 3 9 6 6
4 -4 1 -13 -6 -22 -10 -12 -10 -15 3 -15 9 0 14 -6 12 -12 -6 -18 29 -83 43
-81 6 2 9 -4 6 -12 -4 -8 -2 -15 4 -15 5 0 13 -7 16 -16 5 -14 4 -15 -8 -4
-10 7 -7 -3 7 -29 12 -22 27 -43 33 -45 18 -7 36 10 37 36 2 18 6 24 16 20 10
-4 13 -1 8 11 -3 9 -2 17 3 17 14 0 48 72 42 89 -3 8 0 11 7 7 10 -7 16 13 12
38 -1 5 7 15 19 23 11 8 17 19 13 26 -4 7 0 6 10 -2 18 -15 23 -26 7 -16 -5 3
-10 4 -10 1 0 -14 55 -116 63 -116 4 0 5 6 1 13 -5 9 -3 9 7 -1 11 -10 11 -14
1 -21 -10 -6 -10 -10 2 -21 9 -7 14 -16 11 -20 -6 -10 21 -45 36 -45 7 0 13
-8 15 -18 1 -9 -2 -15 -7 -11 -5 3 -6 10 -3 16 4 7 2 8 -4 4 -12 -7 23 -76 40
-76 5 0 6 -4 3 -10 -3 -5 -1 -10 5 -10 6 0 8 -4 5 -10 -10 -16 27 -72 38 -57
5 7 6 3 2 -10 -4 -14 -2 -23 5 -23 6 0 8 -4 5 -10 -3 -5 -1 -10 5 -10 7 0 10
-6 7 -12 -6 -17 12 -50 23 -43 5 3 12 0 16 -6 4 -8 3 -9 -4 -5 -7 4 -12 2 -12
-3 0 -16 172 -14 189 2 11 10 13 10 7 0 -10 -18 214 -18 233 0 11 10 12 9 7
-1 -6 -10 5 -13 53 -11 34 1 61 6 61 11 0 5 5 6 10 3 6 -3 10 5 10 19 0 14 -4
28 -10 31 -5 3 -10 12 -10 18 0 7 4 6 10 -3 22 -34 8 4 -28 75 -21 41 -42 72
-47 68 -4 -5 -5 0 -2 9 3 10 2 20 -4 23 -5 4 -6 11 -3 17 5 7 1 9 -9 5 -12 -4
-14 -2 -10 10 5 12 3 14 -8 8 -11 -7 -11 -5 1 10 13 17 13 18 0 13 -11 -4 -15
2 -16 25 -1 18 -10 37 -25 49 -13 11 -17 16 -9 12 12 -7 11 -3 -2 19 -10 14
-18 33 -18 40 0 8 -10 22 -22 31 -13 9 -18 14 -11 11 7 -3 2 16 -10 44 -12 28
-26 51 -30 51 -5 0 -5 -5 -1 -12 4 -6 3 -8 -4 -5 -5 4 -8 16 -5 27 5 20 -13
53 -26 46 -3 -2 -7 7 -8 21 0 14 -7 30 -13 37 -10 8 -11 8 -5 -3 5 -10 4 -12
-4 -7 -6 4 -9 12 -6 17 10 14 -5 50 -17 43 -7 -4 -8 -2 -4 4 4 6 1 22 -6 34
-7 13 -11 27 -10 32 2 5 -4 6 -11 3 -10 -4 -13 0 -10 13 3 10 -5 27 -19 40
-12 13 -17 20 -10 15 10 -5 9 1 -2 24 -9 17 -19 31 -22 31 -3 0 -2 -5 2 -12 4
-6 3 -8 -4 -5 -5 4 -8 16 -5 26 3 11 -4 28 -16 40 -12 12 -20 22 -19 24 6 9
-13 48 -21 42 -7 -3 -8 0 -5 9 3 8 -2 25 -10 38 -9 14 -13 28 -9 33 5 4 1 6
-8 2 -12 -4 -16 -1 -12 13 3 10 -1 21 -8 25 -8 6 -10 4 -4 -5 5 -8 4 -11 -3
-6 -6 4 -9 13 -5 22 3 8 -5 26 -18 41 -13 14 -18 23 -11 19 10 -6 9 0 -2 23
-9 17 -19 31 -22 31 -3 0 -2 -5 2 -12 4 -7 3 -8 -4 -4 -6 4 -9 13 -6 21 3 8
-5 26 -19 41 -16 17 -23 33 -19 47 4 14 2 18 -7 13 -8 -5 -11 -3 -10 5 1 8 -1
22 -6 32 -6 15 -10 16 -17 5 -6 -9 -7 -6 -3 10 4 13 2 22 -4 22 -6 0 -10 3
-10 8 3 19 -3 33 -23 53 -13 12 -17 18 -10 14 11 -6 12 -3 3 14 -7 11 -14 21
-17 21 -3 0 -2 -5 2 -12 4 -7 3 -8 -5 -4 -6 4 -9 16 -6 27 6 18 -4 24 -28 20
-5 -1 -6 3 -2 9 3 5 1 10 -5 10 -6 0 -8 5 -5 10 7 11 -2 12 -22 3z m-163 -337
c0 -3 -4 -8 -10 -11 -5 -3 -10 -1 -10 4 0 6 5 11 10 11 6 0 10 -2 10 -4z m-29
-49 c-10 -9 -11 -8 -5 6 3 10 9 15 12 12 3 -3 0 -11 -7 -18z m-18 -32 c-3 -9
-8 -14 -10 -11 -3 3 -2 9 2 15 9 16 15 13 8 -4z m287 -820 c0 -5 -9 5 -20 23
-26 42 -26 56 0 17 11 -16 20 -34 20 -40z m-280 -25 c0 -5 -2 -10 -4 -10 -3 0
-8 5 -11 10 -3 6 -1 10 4 10 6 0 11 -4 11 -10z m133 -35 c-3 -9 -8 -14 -10
-11 -3 3 -2 9 2 15 9 16 15 13 8 -4z m192 -5 c3 -6 -1 -7 -9 -4 -18 7 -21 14
-7 14 6 0 13 -4 16 -10z m-266 -84 c-3 -3 -11 5 -18 17 -13 21 -12 21 5 5 10
-10 16 -20 13 -22z m326 -44 c-3 -3 -11 0 -18 7 -9 10 -8 11 6 5 10 -3 15 -9
12 -12z m33 -87 c-3 -3 -9 2 -12 12 -6 14 -5 15 5 6 7 -7 10 -15 7 -18z"/>
<path d="M2135 2220 c3 -5 8 -10 11 -10 2 0 4 5 4 10 0 6 -5 10 -11 10 -5 0
-7 -4 -4 -10z"/>
<path d="M409 1683 c-25 -32 -40 -64 -34 -74 4 -5 3 -9 -2 -8 -20 3 -27 -2
-13 -11 13 -8 13 -10 -2 -10 -17 0 -34 -34 -29 -59 1 -7 -2 -10 -7 -7 -6 3
-13 -1 -16 -10 -4 -10 -2 -13 7 -9 6 4 5 1 -4 -7 -27 -22 -61 -96 -46 -101 6
-3 3 -6 -7 -6 -11 -1 -16 -4 -13 -8 4 -3 1 -13 -7 -22 -8 -9 -16 -23 -18 -31
-2 -8 -9 -21 -16 -29 -8 -8 -11 -22 -9 -32 3 -10 1 -17 -3 -16 -4 1 -7 -1 -6
-4 0 -4 -6 -15 -16 -25 -29 -33 -77 -143 -64 -148 6 -2 3 -5 -6 -5 -10 -1 -18
-6 -18 -12 0 -5 6 -7 13 -3 6 4 2 -3 -10 -15 -26 -25 -63 -93 -63 -116 0 -8
-5 -15 -11 -15 -13 0 -8 -41 7 -56 15 -17 221 -19 242 -2 12 10 14 10 8 0 -6
-9 27 -12 154 -11 88 0 158 4 155 9 -3 4 2 10 10 14 8 3 15 10 15 16 0 6 -5 8
-12 4 -7 -4 -8 -3 -4 5 4 6 11 9 15 6 5 -2 13 7 20 22 11 24 11 25 -5 12 -16
-13 -16 -12 -4 8 8 12 18 19 22 17 4 -3 8 -1 8 5 0 5 -6 12 -12 14 -8 3 -6 6
4 6 20 1 42 36 33 51 -3 6 -1 10 5 10 6 0 8 5 5 10 -3 6 -1 10 5 10 7 0 9 9 5
23 -5 17 -4 18 4 7 9 -12 11 -12 16 2 4 10 4 21 1 27 -4 5 -1 13 5 17 8 5 9 3
4 -6 -5 -9 -4 -11 4 -6 9 6 9 11 1 21 -8 10 -7 16 7 24 17 10 17 10 -2 11 -17
0 -17 2 -5 10 10 6 11 10 3 10 -7 0 -13 7 -13 16 0 8 -4 12 -10 9 -6 -4 -7 1
-3 11 4 11 3 15 -4 11 -7 -5 -9 0 -6 13 3 11 0 20 -6 20 -6 0 -11 7 -11 16 0
8 -4 13 -9 10 -5 -3 -12 1 -15 10 -4 9 -2 13 5 8 7 -4 10 -1 7 7 -3 8 -11 13
-18 11 -8 -2 -10 3 -6 13 3 9 -1 18 -10 22 -13 5 -13 7 -2 14 10 7 10 9 1 9
-7 0 -13 7 -13 16 0 8 -4 13 -9 9 -5 -3 -13 0 -17 6 -4 8 -3 9 4 5 22 -14 12
23 -10 38 -15 11 -18 16 -8 17 10 0 8 3 -5 9 -11 5 -14 9 -7 9 10 1 10 4 0 15
-7 8 -17 11 -23 8 -5 -3 -4 2 4 11 7 9 9 17 4 17 -5 0 -17 20 -28 45 -10 25
-23 49 -28 52 -6 4 -7 1 -2 -7 5 -9 4 -11 -4 -6 -6 4 -9 11 -7 15 7 11 -23 51
-38 51 -7 0 -19 -8 -27 -17z m-109 -233 c-6 -11 -13 -20 -16 -20 -2 0 0 9 6
20 6 11 13 20 16 20 2 0 0 -9 -6 -20z m-154 -308 c-17 -16 -18 -16 -5 5 7 12
15 20 18 17 3 -2 -3 -12 -13 -22z m-95 -185 c-10 -9 -11 -8 -5 6 3 10 9 15 12
12 3 -3 0 -11 -7 -18z"/>
<path d="M1945 1320 c-3 -5 -2 -10 4 -10 5 0 13 5 16 10 3 6 2 10 -4 10 -5 0
-13 -4 -16 -10z"/>
</g>
</svg>
