<svg id="visual" viewBox="0 0 200 200" width="200" height="200" xmlns="http://www.w3.org/2000/svg" xmlns:xlink="http://www.w3.org/1999/xlink" version="1.1"><rect x="0" y="0" width="200" height="200" fill="#D2B48C"></rect><path d="M0 27L1.7 25.7C3.3 24.3 6.7 21.7 9.8 20.5C13 19.3 16 19.7 19.2 20.5C22.3 21.3 25.7 22.7 28.8 23.7C32 24.7 35 25.3 38.2 25.3C41.3 25.3 44.7 24.7 47.8 23.3C51 22 54 20 57.2 20.5C60.3 21 63.7 24 66.8 25.5C70 27 73 27 76.2 26.3C79.3 25.7 82.7 24.3 85.8 24.7C89 25 92 27 95.2 26.5C98.3 26 101.7 23 104.8 21.3C108 19.7 111 19.3 114.2 20.5C117.3 21.7 120.7 24.3 123.8 25.2C127 26 130 25 133.2 23.5C136.3 22 139.7 20 142.8 20.5C146 21 149 24 152.2 25.8C155.3 27.7 158.7 28.3 161.8 28.5C165 28.7 168 28.3 171.2 27.3C174.3 26.3 177.7 24.7 180.8 23.5C184 22.3 187 21.7 190.2 22.2C193.3 22.7 196.7 24.3 198.3 25.2L200 26L200 0L198.3 0C196.7 0 193.3 0 190.2 0C187 0 184 0 180.8 0C177.7 0 174.3 0 171.2 0C168 0 165 0 161.8 0C158.7 0 155.3 0 152.2 0C149 0 146 0 142.8 0C139.7 0 136.3 0 133.2 0C130 0 127 0 123.8 0C120.7 0 117.3 0 114.2 0C111 0 108 0 104.8 0C101.7 0 98.3 0 95.2 0C92 0 89 0 85.8 0C82.7 0 79.3 0 76.2 0C73 0 70 0 66.8 0C63.7 0 60.3 0 57.2 0C54 0 51 0 47.8 0C44.7 0 41.3 0 38.2 0C35 0 32 0 28.8 0C25.7 0 22.3 0 19.2 0C16 0 13 0 9.8 0C6.7 0 3.3 0 1.7 0L0 0Z" fill="#876543"></path><path d="M0 17L1.7 17C3.3 17 6.7 17 9.8 17.2C13 17.3 16 17.7 19.2 17.7C22.3 17.7 25.7 17.3 28.8 17.3C32 17.3 35 17.7 38.2 18C41.3 18.3 44.7 18.7 47.8 18.5C51 18.3 54 17.7 57.2 17.3C60.3 17 63.7 17 66.8 17.7C70 18.3 73 19.7 76.2 21.2C79.3 22.7 82.7 24.3 85.8 23.5C89 22.7 92 19.3 95.2 18.7C98.3 18 101.7 20 104.8 21.5C108 23 111 24 114.2 24.5C117.3 25 120.7 25 123.8 23.5C127 22 130 19 133.2 18.3C136.3 17.7 139.7 19.3 142.8 19.7C146 20 149 19 152.2 19.5C155.3 20 158.7 22 161.8 22.5C165 23 168 22 171.2 21.7C174.3 21.3 177.7 21.7 180.8 20.8C184 20 187 18 190.2 16.8C193.3 15.7 196.7 15.3 198.3 15.2L200 15L200 0L198.3 0C196.7 0 193.3 0 190.2 0C187 0 184 0 180.8 0C177.7 0 174.3 0 171.2 0C168 0 165 0 161.8 0C158.7 0 155.3 0 152.2 0C149 0 146 0 142.8 0C139.7 0 136.3 0 133.2 0C130 0 127 0 123.8 0C120.7 0 117.3 0 114.2 0C111 0 108 0 104.8 0C101.7 0 98.3 0 95.2 0C92 0 89 0 85.8 0C82.7 0 79.3 0 76.2 0C73 0 70 0 66.8 0C63.7 0 60.3 0 57.2 0C54 0 51 0 47.8 0C44.7 0 41.3 0 38.2 0C35 0 32 0 28.8 0C25.7 0 22.3 0 19.2 0C16 0 13 0 9.8 0C6.7 0 3.3 0 1.7 0L0 0Z" fill="#7e5c3a"></path><path d="M0 14L1.7 14.2C3.3 14.3 6.7 14.7 9.8 15.7C13 16.7 16 18.3 19.2 18.2C22.3 18 25.7 16 28.8 15.7C32 15.3 35 16.7 38.2 17.7C41.3 18.7 44.7 19.3 47.8 18.7C51 18 54 16 57.2 14.8C60.3 13.7 63.7 13.3 66.8 13.2C70 13 73 13 76.2 13.8C79.3 14.7 82.7 16.3 85.8 16.5C89 16.7 92 15.3 95.2 15C98.3 14.7 101.7 15.3 104.8 16.5C108 17.7 111 19.3 114.2 19.5C117.3 19.7 120.7 18.3 123.8 18.2C127 18 130 19 133.2 19.8C136.3 20.7 139.7 21.3 142.8 20.3C146 19.3 149 16.7 152.2 16.5C155.3 16.3 158.7 18.7 161.8 19.5C165 20.3 168 19.7 171.2 18.7C174.3 17.7 177.7 16.3 180.8 15.3C184 14.3 187 13.7 190.2 14C193.3 14.3 196.7 15.7 198.3 16.3L200 17L200 0L198.3 0C196.7 0 193.3 0 190.2 0C187 0 184 0 180.8 0C177.7 0 174.3 0 171.2 0C168 0 165 0 161.8 0C158.7 0 155.3 0 152.2 0C149 0 146 0 142.8 0C139.7 0 136.3 0 133.2 0C130 0 127 0 123.8 0C120.7 0 117.3 0 114.2 0C111 0 108 0 104.8 0C101.7 0 98.3 0 95.2 0C92 0 89 0 85.8 0C82.7 0 79.3 0 76.2 0C73 0 70 0 66.8 0C63.7 0 60.3 0 57.2 0C54 0 51 0 47.8 0C44.7 0 41.3 0 38.2 0C35 0 32 0 28.8 0C25.7 0 22.3 0 19.2 0C16 0 13 0 9.8 0C6.7 0 3.3 0 1.7 0L0 0Z" fill="#765432"></path><path d="M0 17L1.7 16.3C3.3 15.7 6.7 14.3 9.8 13.5C13 12.7 16 12.3 19.2 12.7C22.3 13 25.7 14 28.8 13.8C32 13.7 35 12.3 38.2 12C41.3 11.7 44.7 12.3 47.8 12.8C51 13.3 54 13.7 57.2 14C60.3 14.3 63.7 14.7 66.8 14.3C70 14 73 13 76.2 13.2C79.3 13.3 82.7 14.7 85.8 15C89 15.3 92 14.7 95.2 13.8C98.3 13 101.7 12 104.8 12.5C108 13 111 15 114.2 14.8C117.3 14.7 120.7 12.3 123.8 11.7C127 11 130 12 133.2 12.8C136.3 13.7 139.7 14.3 142.8 14C146 13.7 149 12.3 152.2 12C155.3 11.7 158.7 12.3 161.8 12.8C165 13.3 168 13.7 171.2 13.7C174.3 13.7 177.7 13.3 180.8 13.3C184 13.3 187 13.7 190.2 14.2C193.3 14.7 196.7 15.3 198.3 15.7L200 16L200 0L198.3 0C196.7 0 193.3 0 190.2 0C187 0 184 0 180.8 0C177.7 0 174.3 0 171.2 0C168 0 165 0 161.8 0C158.7 0 155.3 0 152.2 0C149 0 146 0 142.8 0C139.7 0 136.3 0 133.2 0C130 0 127 0 123.8 0C120.7 0 117.3 0 114.2 0C111 0 108 0 104.8 0C101.7 0 98.3 0 95.2 0C92 0 89 0 85.8 0C82.7 0 79.3 0 76.2 0C73 0 70 0 66.8 0C63.7 0 60.3 0 57.2 0C54 0 51 0 47.8 0C44.7 0 41.3 0 38.2 0C35 0 32 0 28.8 0C25.7 0 22.3 0 19.2 0C16 0 13 0 9.8 0C6.7 0 3.3 0 1.7 0L0 0Z" fill="#6d4b29"></path><path d="M0 12L1.7 11.3C3.3 10.7 6.7 9.3 9.8 8.7C13 8 16 8 19.2 8.7C22.3 9.3 25.7 10.7 28.8 11.3C32 12 35 12 38.2 12.2C41.3 12.3 44.7 12.7 47.8 12.7C51 12.7 54 12.3 57.2 11.5C60.3 10.7 63.7 9.3 66.8 8.8C70 8.3 73 8.7 76.2 9.2C79.3 9.7 82.7 10.3 85.8 10.5C89 10.7 92 10.3 95.2 10.3C98.3 10.3 101.7 10.7 104.8 11C108 11.3 111 11.7 114.2 11.2C117.3 10.7 120.7 9.3 123.8 9.5C127 9.7 130 11.3 133.2 11.3C136.3 11.3 139.7 9.7 142.8 9C146 8.3 149 8.7 152.2 9.2C155.3 9.7 158.7 10.3 161.8 10.3C165 10.3 168 9.7 171.2 10C174.3 10.3 177.7 11.7 180.8 12.3C184 13 187 13 190.2 12.3C193.3 11.7 196.7 10.3 198.3 9.7L200 9L200 0L198.3 0C196.7 0 193.3 0 190.2 0C187 0 184 0 180.8 0C177.7 0 174.3 0 171.2 0C168 0 165 0 161.8 0C158.7 0 155.3 0 152.2 0C149 0 146 0 142.8 0C139.7 0 136.3 0 133.2 0C130 0 127 0 123.8 0C120.7 0 117.3 0 114.2 0C111 0 108 0 104.8 0C101.7 0 98.3 0 95.2 0C92 0 89 0 85.8 0C82.7 0 79.3 0 76.2 0C73 0 70 0 66.8 0C63.7 0 60.3 0 57.2 0C54 0 51 0 47.8 0C44.7 0 41.3 0 38.2 0C35 0 32 0 28.8 0C25.7 0 22.3 0 19.2 0C16 0 13 0 9.8 0C6.7 0 3.3 0 1.7 0L0 0Z" fill="#654321"></path><path d="M0 6L1.7 6.3C3.3 6.7 6.7 7.3 9.8 7.5C13 7.7 16 7.3 19.2 6.8C22.3 6.3 25.7 5.7 28.8 6.2C32 6.7 35 8.3 38.2 9.2C41.3 10 44.7 10 47.8 9.7C51 9.3 54 8.7 57.2 8C60.3 7.3 63.7 6.7 66.8 6.2C70 5.7 73 5.3 76.2 5.3C79.3 5.3 82.7 5.7 85.8 6C89 6.3 92 6.7 95.2 7.2C98.3 7.7 101.7 8.3 104.8 8.7C108 9 111 9 114.2 8.3C117.3 7.7 120.7 6.3 123.8 6C127 5.7 130 6.3 133.2 6.8C136.3 7.3 139.7 7.7 142.8 7.3C146 7 149 6 152.2 6.2C155.3 6.3 158.7 7.7 161.8 8.3C165 9 168 9 171.2 9C174.3 9 177.7 9 180.8 8.5C184 8 187 7 190.2 6.3C193.3 5.7 196.7 5.3 198.3 5.2L200 5L200 0L198.3 0C196.7 0 193.3 0 190.2 0C187 0 184 0 180.8 0C177.7 0 174.3 0 171.2 0C168 0 165 0 161.8 0C158.7 0 155.3 0 152.2 0C149 0 146 0 142.8 0C139.7 0 136.3 0 133.2 0C130 0 127 0 123.8 0C120.7 0 117.3 0 114.2 0C111 0 108 0 104.8 0C101.7 0 98.3 0 95.2 0C92 0 89 0 85.8 0C82.7 0 79.3 0 76.2 0C73 0 70 0 66.8 0C63.7 0 60.3 0 57.2 0C54 0 51 0 47.8 0C44.7 0 41.3 0 38.2 0C35 0 32 0 28.8 0C25.7 0 22.3 0 19.2 0C16 0 13 0 9.8 0C6.7 0 3.3 0 1.7 0L0 0Z" fill="#5c3a18"></path><path d="M0 4L1.7 4.2C3.3 4.3 6.7 4.7 9.8 4.8C13 5 16 5 19.2 5.2C22.3 5.3 25.7 5.7 28.8 5.5C32 5.3 35 4.7 38.2 4.5C41.3 4.3 44.7 4.7 47.8 4.7C51 4.7 54 4.3 57.2 3.8C60.3 3.3 63.7 2.7 66.8 2.5C70 2.3 73 2.7 76.2 3C79.3 3.3 82.7 3.7 85.8 3.7C89 3.7 92 3.3 95.2 3.5C98.3 3.7 101.7 4.3 104.8 4.2C108 4 111 3 114.2 2.8C117.3 2.7 120.7 3.3 123.8 3.5C127 3.7 130 3.3 133.2 3.2C136.3 3 139.7 3 142.8 3.3C146 3.7 149 4.3 152.2 4.7C155.3 5 158.7 5 161.8 4.7C165 4.3 168 3.7 171.2 3.3C174.3 3 177.7 3 180.8 3.3C184 3.7 187 4.3 190.2 4.7C193.3 5 196.7 5 198.3 5L200 5L200 0L198.3 0C196.7 0 193.3 0 190.2 0C187 0 184 0 180.8 0C177.7 0 174.3 0 171.2 0C168 0 165 0 161.8 0C158.7 0 155.3 0 152.2 0C149 0 146 0 142.8 0C139.7 0 136.3 0 133.2 0C130 0 127 0 123.8 0C120.7 0 117.3 0 114.2 0C111 0 108 0 104.8 0C101.7 0 98.3 0 95.2 0C92 0 89 0 85.8 0C82.7 0 79.3 0 76.2 0C73 0 70 0 66.8 0C63.7 0 60.3 0 57.2 0C54 0 51 0 47.8 0C44.7 0 41.3 0 38.2 0C35 0 32 0 28.8 0C25.7 0 22.3 0 19.2 0C16 0 13 0 9.8 0C6.7 0 3.3 0 1.7 0L0 0Z" fill="#543210"></path></svg>