<svg id="visual" viewBox="0 0 150 150" width="150" height="150" xmlns="http://www.w3.org/2000/svg" xmlns:xlink="http://www.w3.org/1999/xlink" version="1.1"><rect x="0" y="0" width="150" height="150" fill="#D2B48C"></rect><path d="M0 20L1.2 19C2.3 18 4.7 16 7 15C9.3 14 11.7 14 14 14.7C16.3 15.3 18.7 16.7 21.2 17.7C23.7 18.7 26.3 19.3 28.8 19.3C31.3 19.3 33.7 18.7 36 17.5C38.3 16.3 40.7 14.7 43 15C45.3 15.3 47.7 17.7 50 18.8C52.3 20 54.7 20 57 19.5C59.3 19 61.7 18 64 18.3C66.3 18.7 68.7 20.3 71.2 20C73.7 19.7 76.3 17.3 78.8 16C81.3 14.7 83.7 14.3 86 15.2C88.3 16 90.7 18 93 18.7C95.3 19.3 97.7 18.7 100 17.5C102.3 16.3 104.7 14.7 107 15C109.3 15.3 111.7 17.7 114 19C116.3 20.3 118.7 20.7 121.2 20.8C123.7 21 126.3 21 128.8 20.3C131.3 19.7 133.7 18.3 136 17.5C138.3 16.7 140.7 16.3 143 16.8C145.3 17.3 147.7 18.7 148.8 19.3L150 20L150 0L148.8 0C147.7 0 145.3 0 143 0C140.7 0 138.3 0 136 0C133.7 0 131.3 0 128.8 0C126.3 0 123.7 0 121.2 0C118.7 0 116.3 0 114 0C111.7 0 109.3 0 107 0C104.7 0 102.3 0 100 0C97.7 0 95.3 0 93 0C90.7 0 88.3 0 86 0C83.7 0 81.3 0 78.8 0C76.3 0 73.7 0 71.2 0C68.7 0 66.3 0 64 0C61.7 0 59.3 0 57 0C54.7 0 52.3 0 50 0C47.7 0 45.3 0 43 0C40.7 0 38.3 0 36 0C33.7 0 31.3 0 28.8 0C26.3 0 23.7 0 21.2 0C18.7 0 16.3 0 14 0C11.7 0 9.3 0 7 0C4.7 0 2.3 0 1.2 0L0 0Z" fill="#876543"></path><path d="M0 12L1.2 12.2C2.3 12.3 4.7 12.7 7 12.8C9.3 13 11.7 13 14 13C16.3 13 18.7 13 21.2 13C23.7 13 26.3 13 28.8 13.2C31.3 13.3 33.7 13.7 36 13.5C38.3 13.3 40.7 12.7 43 12.3C45.3 12 47.7 12 50 12.5C52.3 13 54.7 14 57 15.2C59.3 16.3 61.7 17.7 64 17C66.3 16.3 68.7 13.7 71.2 13.2C73.7 12.7 76.3 14.3 78.8 15.7C81.3 17 83.7 18 86 18.3C88.3 18.7 90.7 18.3 93 17.2C95.3 16 97.7 14 100 13.5C102.3 13 104.7 14 107 14.2C109.3 14.3 111.7 13.7 114 14.2C116.3 14.7 118.7 16.3 121.2 16.7C123.7 17 126.3 16 128.8 15.7C131.3 15.3 133.7 15.7 136 15.2C138.3 14.7 140.7 13.3 143 12.5C145.3 11.7 147.7 11.3 148.8 11.2L150 11L150 0L148.8 0C147.7 0 145.3 0 143 0C140.7 0 138.3 0 136 0C133.7 0 131.3 0 128.8 0C126.3 0 123.7 0 121.2 0C118.7 0 116.3 0 114 0C111.7 0 109.3 0 107 0C104.7 0 102.3 0 100 0C97.7 0 95.3 0 93 0C90.7 0 88.3 0 86 0C83.7 0 81.3 0 78.8 0C76.3 0 73.7 0 71.2 0C68.7 0 66.3 0 64 0C61.7 0 59.3 0 57 0C54.7 0 52.3 0 50 0C47.7 0 45.3 0 43 0C40.7 0 38.3 0 36 0C33.7 0 31.3 0 28.8 0C26.3 0 23.7 0 21.2 0C18.7 0 16.3 0 14 0C11.7 0 9.3 0 7 0C4.7 0 2.3 0 1.2 0L0 0Z" fill="#7e5c3a"></path><path d="M0 11L1.2 11C2.3 11 4.7 11 7 11.7C9.3 12.3 11.7 13.7 14 13.5C16.3 13.3 18.7 11.7 21.2 11.3C23.7 11 26.3 12 28.8 12.7C31.3 13.3 33.7 13.7 36 13.2C38.3 12.7 40.7 11.3 43 10.7C45.3 10 47.7 10 50 9.8C52.3 9.7 54.7 9.3 57 9.8C59.3 10.3 61.7 11.7 64 11.8C66.3 12 68.7 11 71.2 10.8C73.7 10.7 76.3 11.3 78.8 12.3C81.3 13.3 83.7 14.7 86 14.7C88.3 14.7 90.7 13.3 93 13.2C95.3 13 97.7 14 100 14.7C102.3 15.3 104.7 15.7 107 14.8C109.3 14 111.7 12 114 11.8C116.3 11.7 118.7 13.3 121.2 14C123.7 14.7 126.3 14.3 128.8 13.7C131.3 13 133.7 12 136 11.3C138.3 10.7 140.7 10.3 143 10.5C145.3 10.7 147.7 11.3 148.8 11.7L150 12L150 0L148.8 0C147.7 0 145.3 0 143 0C140.7 0 138.3 0 136 0C133.7 0 131.3 0 128.8 0C126.3 0 123.7 0 121.2 0C118.7 0 116.3 0 114 0C111.7 0 109.3 0 107 0C104.7 0 102.3 0 100 0C97.7 0 95.3 0 93 0C90.7 0 88.3 0 86 0C83.7 0 81.3 0 78.8 0C76.3 0 73.7 0 71.2 0C68.7 0 66.3 0 64 0C61.7 0 59.3 0 57 0C54.7 0 52.3 0 50 0C47.7 0 45.3 0 43 0C40.7 0 38.3 0 36 0C33.7 0 31.3 0 28.8 0C26.3 0 23.7 0 21.2 0C18.7 0 16.3 0 14 0C11.7 0 9.3 0 7 0C4.7 0 2.3 0 1.2 0L0 0Z" fill="#765432"></path><path d="M0 12L1.2 11.7C2.3 11.3 4.7 10.7 7 10.2C9.3 9.7 11.7 9.3 14 9.5C16.3 9.7 18.7 10.3 21.2 10.2C23.7 10 26.3 9 28.8 8.8C31.3 8.7 33.7 9.3 36 9.7C38.3 10 40.7 10 43 10.2C45.3 10.3 47.7 10.7 50 10.5C52.3 10.3 54.7 9.7 57 9.8C59.3 10 61.7 11 64 11.2C66.3 11.3 68.7 10.7 71.2 10C73.7 9.3 76.3 8.7 78.8 9C81.3 9.3 83.7 10.7 86 10.5C88.3 10.3 90.7 8.7 93 8.2C95.3 7.7 97.7 8.3 100 9C102.3 9.7 104.7 10.3 107 10.2C109.3 10 111.7 9 114 8.8C116.3 8.7 118.7 9.3 121.2 9.7C123.7 10 126.3 10 128.8 9.8C131.3 9.7 133.7 9.3 136 9.3C138.3 9.3 140.7 9.7 143 10.2C145.3 10.7 147.7 11.3 148.8 11.7L150 12L150 0L148.8 0C147.7 0 145.3 0 143 0C140.7 0 138.3 0 136 0C133.7 0 131.3 0 128.8 0C126.3 0 123.7 0 121.2 0C118.7 0 116.3 0 114 0C111.7 0 109.3 0 107 0C104.7 0 102.3 0 100 0C97.7 0 95.3 0 93 0C90.7 0 88.3 0 86 0C83.7 0 81.3 0 78.8 0C76.3 0 73.7 0 71.2 0C68.7 0 66.3 0 64 0C61.7 0 59.3 0 57 0C54.7 0 52.3 0 50 0C47.7 0 45.3 0 43 0C40.7 0 38.3 0 36 0C33.7 0 31.3 0 28.8 0C26.3 0 23.7 0 21.2 0C18.7 0 16.3 0 14 0C11.7 0 9.3 0 7 0C4.7 0 2.3 0 1.2 0L0 0Z" fill="#6d4b29"></path><path d="M0 9L1.2 8.5C2.3 8 4.7 7 7 6.3C9.3 5.7 11.7 5.3 14 5.8C16.3 6.3 18.7 7.7 21.2 8.3C23.7 9 26.3 9 28.8 9.2C31.3 9.3 33.7 9.7 36 9.5C38.3 9.3 40.7 8.7 43 8C45.3 7.3 47.7 6.7 50 6.5C52.3 6.3 54.7 6.7 57 7C59.3 7.3 61.7 7.7 64 7.7C66.3 7.7 68.7 7.3 71.2 7.3C73.7 7.3 76.3 7.7 78.8 7.8C81.3 8 83.7 8 86 7.7C88.3 7.3 90.7 6.7 93 6.8C95.3 7 97.7 8 100 8C102.3 8 104.7 7 107 6.7C109.3 6.3 111.7 6.7 114 7C116.3 7.3 118.7 7.7 121.2 7.5C123.7 7.3 126.3 6.7 128.8 6.8C131.3 7 133.7 8 136 8.7C138.3 9.3 140.7 9.7 143 9.2C145.3 8.7 147.7 7.3 148.8 6.7L150 6L150 0L148.8 0C147.7 0 145.3 0 143 0C140.7 0 138.3 0 136 0C133.7 0 131.3 0 128.8 0C126.3 0 123.7 0 121.2 0C118.7 0 116.3 0 114 0C111.7 0 109.3 0 107 0C104.7 0 102.3 0 100 0C97.7 0 95.3 0 93 0C90.7 0 88.3 0 86 0C83.7 0 81.3 0 78.8 0C76.3 0 73.7 0 71.2 0C68.7 0 66.3 0 64 0C61.7 0 59.3 0 57 0C54.7 0 52.3 0 50 0C47.7 0 45.3 0 43 0C40.7 0 38.3 0 36 0C33.7 0 31.3 0 28.8 0C26.3 0 23.7 0 21.2 0C18.7 0 16.3 0 14 0C11.7 0 9.3 0 7 0C4.7 0 2.3 0 1.2 0L0 0Z" fill="#654321"></path><path d="M0 5L1.2 5.2C2.3 5.3 4.7 5.7 7 5.7C9.3 5.7 11.7 5.3 14 4.8C16.3 4.3 18.7 3.7 21.2 4C23.7 4.3 26.3 5.7 28.8 6.3C31.3 7 33.7 7 36 6.8C38.3 6.7 40.7 6.3 43 5.8C45.3 5.3 47.7 4.7 50 4.3C52.3 4 54.7 4 57 4C59.3 4 61.7 4 64 4.2C66.3 4.3 68.7 4.7 71.2 5C73.7 5.3 76.3 5.7 78.8 5.8C81.3 6 83.7 6 86 5.7C88.3 5.3 90.7 4.7 93 4.5C95.3 4.3 97.7 4.7 100 5C102.3 5.3 104.7 5.7 107 5.5C109.3 5.3 111.7 4.7 114 4.7C116.3 4.7 118.7 5.3 121.2 5.8C123.7 6.3 126.3 6.7 128.8 6.8C131.3 7 133.7 7 136 6.5C138.3 6 140.7 5 143 4.3C145.3 3.7 147.7 3.3 148.8 3.2L150 3L150 0L148.8 0C147.7 0 145.3 0 143 0C140.7 0 138.3 0 136 0C133.7 0 131.3 0 128.8 0C126.3 0 123.7 0 121.2 0C118.7 0 116.3 0 114 0C111.7 0 109.3 0 107 0C104.7 0 102.3 0 100 0C97.7 0 95.3 0 93 0C90.7 0 88.3 0 86 0C83.7 0 81.3 0 78.8 0C76.3 0 73.7 0 71.2 0C68.7 0 66.3 0 64 0C61.7 0 59.3 0 57 0C54.7 0 52.3 0 50 0C47.7 0 45.3 0 43 0C40.7 0 38.3 0 36 0C33.7 0 31.3 0 28.8 0C26.3 0 23.7 0 21.2 0C18.7 0 16.3 0 14 0C11.7 0 9.3 0 7 0C4.7 0 2.3 0 1.2 0L0 0Z" fill="#5c3a18"></path><path d="M0 3L1.2 3.2C2.3 3.3 4.7 3.7 7 3.8C9.3 4 11.7 4 14 4C16.3 4 18.7 4 21.2 3.8C23.7 3.7 26.3 3.3 28.8 3.3C31.3 3.3 33.7 3.7 36 3.7C38.3 3.7 40.7 3.3 43 2.8C45.3 2.3 47.7 1.7 50 1.5C52.3 1.3 54.7 1.7 57 2C59.3 2.3 61.7 2.7 64 2.7C66.3 2.7 68.7 2.3 71.2 2.5C73.7 2.7 76.3 3.3 78.8 3.3C81.3 3.3 83.7 2.7 86 2.5C88.3 2.3 90.7 2.7 93 2.7C95.3 2.7 97.7 2.3 100 2.2C102.3 2 104.7 2 107 2.3C109.3 2.7 111.7 3.3 114 3.5C116.3 3.7 118.7 3.3 121.2 3C123.7 2.7 126.3 2.3 128.8 2.2C131.3 2 133.7 2 136 2.2C138.3 2.3 140.7 2.7 143 3C145.3 3.3 147.7 3.7 148.8 3.8L150 4L150 0L148.8 0C147.7 0 145.3 0 143 0C140.7 0 138.3 0 136 0C133.7 0 131.3 0 128.8 0C126.3 0 123.7 0 121.2 0C118.7 0 116.3 0 114 0C111.7 0 109.3 0 107 0C104.7 0 102.3 0 100 0C97.7 0 95.3 0 93 0C90.7 0 88.3 0 86 0C83.7 0 81.3 0 78.8 0C76.3 0 73.7 0 71.2 0C68.7 0 66.3 0 64 0C61.7 0 59.3 0 57 0C54.7 0 52.3 0 50 0C47.7 0 45.3 0 43 0C40.7 0 38.3 0 36 0C33.7 0 31.3 0 28.8 0C26.3 0 23.7 0 21.2 0C18.7 0 16.3 0 14 0C11.7 0 9.3 0 7 0C4.7 0 2.3 0 1.2 0L0 0Z" fill="#543210"></path></svg>