<svg id="visual" viewBox="0 0 300 300" width="300" height="300" xmlns="http://www.w3.org/2000/svg" xmlns:xlink="http://www.w3.org/1999/xlink" version="1.1"><path d="M0 32L2.2 29.2C4.3 26.3 8.7 20.7 12.8 19.3C17 18 21 21 25.2 21.5C29.3 22 33.7 20 37.8 18C42 16 46 14 50.2 16.5C54.3 19 58.7 26 62.8 28.3C67 30.7 71 28.3 75.2 26.5C79.3 24.7 83.7 23.3 87.8 21.7C92 20 96 18 100.2 18.8C104.3 19.7 108.7 23.3 112.8 26.8C117 30.3 121 33.7 125.2 36.5C129.3 39.3 133.7 41.7 137.8 40.3C142 39 146 34 150.2 32C154.3 30 158.7 31 162.8 31.7C167 32.3 171 32.7 175.2 33C179.3 33.3 183.7 33.7 187.8 33.2C192 32.7 196 31.3 200.2 29.2C204.3 27 208.7 24 212.8 23.5C217 23 221 25 225.2 28.2C229.3 31.3 233.7 35.7 237.8 36.2C242 36.7 246 33.3 250.2 28.5C254.3 23.7 258.7 17.3 262.8 19.3C267 21.3 271 31.7 275.2 32.5C279.3 33.3 283.7 24.7 287.8 21.3C292 18 296 20 298 21L300 22L300 0L298 0C296 0 292 0 287.8 0C283.7 0 279.3 0 275.2 0C271 0 267 0 262.8 0C258.7 0 254.3 0 250.2 0C246 0 242 0 237.8 0C233.7 0 229.3 0 225.2 0C221 0 217 0 212.8 0C208.7 0 204.3 0 200.2 0C196 0 192 0 187.8 0C183.7 0 179.3 0 175.2 0C171 0 167 0 162.8 0C158.7 0 154.3 0 150.2 0C146 0 142 0 137.8 0C133.7 0 129.3 0 125.2 0C121 0 117 0 112.8 0C108.7 0 104.3 0 100.2 0C96 0 92 0 87.8 0C83.7 0 79.3 0 75.2 0C71 0 67 0 62.8 0C58.7 0 54.3 0 50.2 0C46 0 42 0 37.8 0C33.7 0 29.3 0 25.2 0C21 0 17 0 12.8 0C8.7 0 4.3 0 2.2 0L0 0Z" fill="#654321" stroke-linecap="round" stroke-linejoin="miter"></path></svg>