<svg id="visual" viewBox="0 0 1200 60" width="1200" height="60" xmlns="http://www.w3.org/2000/svg" xmlns:xlink="http://www.w3.org/1999/xlink" version="1.1"><rect x="0" y="0" width="1200" height="60" fill="#D2B48C"></rect><path d="M0 41L8.7 42.2C17.3 43.3 34.7 45.7 52 45.8C69.3 46 86.7 44 104.2 40.5C121.7 37 139.3 32 156.8 30C174.3 28 191.7 29 209 30.3C226.3 31.7 243.7 33.3 261 34.5C278.3 35.7 295.7 36.3 313 37.2C330.3 38 347.7 39 365 40.3C382.3 41.7 399.7 43.3 417.2 43.7C434.7 44 452.3 43 469.8 39.3C487.3 35.7 504.7 29.3 522 26.8C539.3 24.3 556.7 25.7 574 29.5C591.3 33.3 608.7 39.7 626 41.7C643.3 43.7 660.7 41.3 678 37.7C695.3 34 712.7 29 730.2 28.8C747.7 28.7 765.3 33.3 782.8 36.8C800.3 40.3 817.7 42.7 835 42.7C852.3 42.7 869.7 40.3 887 41C904.3 41.7 921.7 45.3 939 44.8C956.3 44.3 973.7 39.7 991 39.5C1008.3 39.3 1025.7 43.7 1043.2 43.7C1060.7 43.7 1078.3 39.3 1095.8 37.2C1113.3 35 1130.7 35 1148 36.8C1165.3 38.7 1182.7 42.3 1191.3 44.2L1200 46L1200 0L1191.3 0C1182.7 0 1165.3 0 1148 0C1130.7 0 1113.3 0 1095.8 0C1078.3 0 1060.7 0 1043.2 0C1025.7 0 1008.3 0 991 0C973.7 0 956.3 0 939 0C921.7 0 904.3 0 887 0C869.7 0 852.3 0 835 0C817.7 0 800.3 0 782.8 0C765.3 0 747.7 0 730.2 0C712.7 0 695.3 0 678 0C660.7 0 643.3 0 626 0C608.7 0 591.3 0 574 0C556.7 0 539.3 0 522 0C504.7 0 487.3 0 469.8 0C452.3 0 434.7 0 417.2 0C399.7 0 382.3 0 365 0C347.7 0 330.3 0 313 0C295.7 0 278.3 0 261 0C243.7 0 226.3 0 209 0C191.7 0 174.3 0 156.8 0C139.3 0 121.7 0 104.2 0C86.7 0 69.3 0 52 0C34.7 0 17.3 0 8.7 0L0 0Z" fill="#654321"></path><path d="M0 24L8.7 27.7C17.3 31.3 34.7 38.7 52 41.7C69.3 44.7 86.7 43.3 104.2 40.2C121.7 37 139.3 32 156.8 29.7C174.3 27.3 191.7 27.7 209 26.8C226.3 26 243.7 24 261 23.5C278.3 23 295.7 24 313 24.5C330.3 25 347.7 25 365 27.3C382.3 29.7 399.7 34.3 417.2 35.7C434.7 37 452.3 35 469.8 34C487.3 33 504.7 33 522 35.2C539.3 37.3 556.7 41.7 574 42.5C591.3 43.3 608.7 40.7 626 38.3C643.3 36 660.7 34 678 34.3C695.3 34.7 712.7 37.3 730.2 35.8C747.7 34.3 765.3 28.7 782.8 26.7C800.3 24.7 817.7 26.3 835 26.8C852.3 27.3 869.7 26.7 887 25.7C904.3 24.7 921.7 23.3 939 26.5C956.3 29.7 973.7 37.3 991 38C1008.3 38.7 1025.7 32.3 1043.2 28.8C1060.7 25.3 1078.3 24.7 1095.8 25.7C1113.3 26.7 1130.7 29.3 1148 30.2C1165.3 31 1182.7 30 1191.3 29.5L1200 29L1200 0L1191.3 0C1182.7 0 1165.3 0 1148 0C1130.7 0 1113.3 0 1095.8 0C1078.3 0 1060.7 0 1043.2 0C1025.7 0 1008.3 0 991 0C973.7 0 956.3 0 939 0C921.7 0 904.3 0 887 0C869.7 0 852.3 0 835 0C817.7 0 800.3 0 782.8 0C765.3 0 747.7 0 730.2 0C712.7 0 695.3 0 678 0C660.7 0 643.3 0 626 0C608.7 0 591.3 0 574 0C556.7 0 539.3 0 522 0C504.7 0 487.3 0 469.8 0C452.3 0 434.7 0 417.2 0C399.7 0 382.3 0 365 0C347.7 0 330.3 0 313 0C295.7 0 278.3 0 261 0C243.7 0 226.3 0 209 0C191.7 0 174.3 0 156.8 0C139.3 0 121.7 0 104.2 0C86.7 0 69.3 0 52 0C34.7 0 17.3 0 8.7 0L0 0Z" fill="#654321"></path><path d="M0 19L8.7 19.2C17.3 19.3 34.7 19.7 52 21.5C69.3 23.3 86.7 26.7 104.2 27.7C121.7 28.7 139.3 27.3 156.8 28.7C174.3 30 191.7 34 209 33C226.3 32 243.7 26 261 24.2C278.3 22.3 295.7 24.7 313 28.3C330.3 32 347.7 37 365 36.7C382.3 36.3 399.7 30.7 417.2 30.3C434.7 30 452.3 35 469.8 34.2C487.3 33.3 504.7 26.7 522 23.5C539.3 20.3 556.7 20.7 574 20.7C591.3 20.7 608.7 20.3 626 20.3C643.3 20.3 660.7 20.7 678 21.3C695.3 22 712.7 23 730.2 24.3C747.7 25.7 765.3 27.3 782.8 29.8C800.3 32.3 817.7 35.7 835 35.5C852.3 35.3 869.7 31.7 887 29.8C904.3 28 921.7 28 939 28.3C956.3 28.7 973.7 29.3 991 31.5C1008.3 33.7 1025.7 37.3 1043.2 39.3C1060.7 41.3 1078.3 41.7 1095.8 40.7C1113.3 39.7 1130.7 37.3 1148 34.7C1165.3 32 1182.7 29 1191.3 27.5L1200 26L1200 0L1191.3 0C1182.7 0 1165.3 0 1148 0C1130.7 0 1113.3 0 1095.8 0C1078.3 0 1060.7 0 1043.2 0C1025.7 0 1008.3 0 991 0C973.7 0 956.3 0 939 0C921.7 0 904.3 0 887 0C869.7 0 852.3 0 835 0C817.7 0 800.3 0 782.8 0C765.3 0 747.7 0 730.2 0C712.7 0 695.3 0 678 0C660.7 0 643.3 0 626 0C608.7 0 591.3 0 574 0C556.7 0 539.3 0 522 0C504.7 0 487.3 0 469.8 0C452.3 0 434.7 0 417.2 0C399.7 0 382.3 0 365 0C347.7 0 330.3 0 313 0C295.7 0 278.3 0 261 0C243.7 0 226.3 0 209 0C191.7 0 174.3 0 156.8 0C139.3 0 121.7 0 104.2 0C86.7 0 69.3 0 52 0C34.7 0 17.3 0 8.7 0L0 0Z" fill="#654321"></path><path d="M0 35L8.7 35.3C17.3 35.7 34.7 36.3 52 34.7C69.3 33 86.7 29 104.2 26.5C121.7 24 139.3 23 156.8 23.7C174.3 24.3 191.7 26.7 209 27.3C226.3 28 243.7 27 261 26C278.3 25 295.7 24 313 23.2C330.3 22.3 347.7 21.7 365 22.7C382.3 23.7 399.7 26.3 417.2 26C434.7 25.7 452.3 22.3 469.8 21.2C487.3 20 504.7 21 522 23.7C539.3 26.3 556.7 30.7 574 31.2C591.3 31.7 608.7 28.3 626 28.5C643.3 28.7 660.7 32.3 678 34.2C695.3 36 712.7 36 730.2 33.3C747.7 30.7 765.3 25.3 782.8 22.2C800.3 19 817.7 18 835 18.7C852.3 19.3 869.7 21.7 887 23.7C904.3 25.7 921.7 27.3 939 26.7C956.3 26 973.7 23 991 22.7C1008.3 22.3 1025.7 24.7 1043.2 25.3C1060.7 26 1078.3 25 1095.8 25C1113.3 25 1130.7 26 1148 27.2C1165.3 28.3 1182.7 29.7 1191.3 30.3L1200 31L1200 0L1191.3 0C1182.7 0 1165.3 0 1148 0C1130.7 0 1113.3 0 1095.8 0C1078.3 0 1060.7 0 1043.2 0C1025.7 0 1008.3 0 991 0C973.7 0 956.3 0 939 0C921.7 0 904.3 0 887 0C869.7 0 852.3 0 835 0C817.7 0 800.3 0 782.8 0C765.3 0 747.7 0 730.2 0C712.7 0 695.3 0 678 0C660.7 0 643.3 0 626 0C608.7 0 591.3 0 574 0C556.7 0 539.3 0 522 0C504.7 0 487.3 0 469.8 0C452.3 0 434.7 0 417.2 0C399.7 0 382.3 0 365 0C347.7 0 330.3 0 313 0C295.7 0 278.3 0 261 0C243.7 0 226.3 0 209 0C191.7 0 174.3 0 156.8 0C139.3 0 121.7 0 104.2 0C86.7 0 69.3 0 52 0C34.7 0 17.3 0 8.7 0L0 0Z" fill="#654321"></path><path d="M0 15L8.7 15.2C17.3 15.3 34.7 15.7 52 18.7C69.3 21.7 86.7 27.3 104.2 29.3C121.7 31.3 139.3 29.7 156.8 29.5C174.3 29.3 191.7 30.7 209 29.5C226.3 28.3 243.7 24.7 261 22.2C278.3 19.7 295.7 18.3 313 19.3C330.3 20.3 347.7 23.7 365 23.5C382.3 23.3 399.7 19.7 417.2 18.3C434.7 17 452.3 18 469.8 18.8C487.3 19.7 504.7 20.3 522 19.7C539.3 19 556.7 17 574 18.8C591.3 20.7 608.7 26.3 626 26.5C643.3 26.7 660.7 21.3 678 18.8C695.3 16.3 712.7 16.7 730.2 18.2C747.7 19.7 765.3 22.3 782.8 23.8C800.3 25.3 817.7 25.7 835 25C852.3 24.3 869.7 22.7 887 22.3C904.3 22 921.7 23 939 23.8C956.3 24.7 973.7 25.3 991 26C1008.3 26.7 1025.7 27.3 1043.2 25.7C1060.7 24 1078.3 20 1095.8 18.8C1113.3 17.7 1130.7 19.3 1148 20.3C1165.3 21.3 1182.7 21.7 1191.3 21.8L1200 22L1200 0L1191.3 0C1182.7 0 1165.3 0 1148 0C1130.7 0 1113.3 0 1095.8 0C1078.3 0 1060.7 0 1043.2 0C1025.7 0 1008.3 0 991 0C973.7 0 956.3 0 939 0C921.7 0 904.3 0 887 0C869.7 0 852.3 0 835 0C817.7 0 800.3 0 782.8 0C765.3 0 747.7 0 730.2 0C712.7 0 695.3 0 678 0C660.7 0 643.3 0 626 0C608.7 0 591.3 0 574 0C556.7 0 539.3 0 522 0C504.7 0 487.3 0 469.8 0C452.3 0 434.7 0 417.2 0C399.7 0 382.3 0 365 0C347.7 0 330.3 0 313 0C295.7 0 278.3 0 261 0C243.7 0 226.3 0 209 0C191.7 0 174.3 0 156.8 0C139.3 0 121.7 0 104.2 0C86.7 0 69.3 0 52 0C34.7 0 17.3 0 8.7 0L0 0Z" fill="#654321"></path><path d="M0 29L8.7 26.5C17.3 24 34.7 19 52 16.7C69.3 14.3 86.7 14.7 104.2 14.7C121.7 14.7 139.3 14.3 156.8 14.8C174.3 15.3 191.7 16.7 209 18.7C226.3 20.7 243.7 23.3 261 23.8C278.3 24.3 295.7 22.7 313 22.2C330.3 21.7 347.7 22.3 365 22C382.3 21.7 399.7 20.3 417.2 19.5C434.7 18.7 452.3 18.3 469.8 20C487.3 21.7 504.7 25.3 522 25C539.3 24.7 556.7 20.3 574 18.7C591.3 17 608.7 18 626 17.8C643.3 17.7 660.7 16.3 678 17.3C695.3 18.3 712.7 21.7 730.2 21.8C747.7 22 765.3 19 782.8 18.7C800.3 18.3 817.7 20.7 835 22.8C852.3 25 869.7 27 887 27.5C904.3 28 921.7 27 939 26C956.3 25 973.7 24 991 24C1008.3 24 1025.7 25 1043.2 25.5C1060.7 26 1078.3 26 1095.8 26C1113.3 26 1130.7 26 1148 26.5C1165.3 27 1182.7 28 1191.3 28.5L1200 29L1200 0L1191.3 0C1182.7 0 1165.3 0 1148 0C1130.7 0 1113.3 0 1095.8 0C1078.3 0 1060.7 0 1043.2 0C1025.7 0 1008.3 0 991 0C973.7 0 956.3 0 939 0C921.7 0 904.3 0 887 0C869.7 0 852.3 0 835 0C817.7 0 800.3 0 782.8 0C765.3 0 747.7 0 730.2 0C712.7 0 695.3 0 678 0C660.7 0 643.3 0 626 0C608.7 0 591.3 0 574 0C556.7 0 539.3 0 522 0C504.7 0 487.3 0 469.8 0C452.3 0 434.7 0 417.2 0C399.7 0 382.3 0 365 0C347.7 0 330.3 0 313 0C295.7 0 278.3 0 261 0C243.7 0 226.3 0 209 0C191.7 0 174.3 0 156.8 0C139.3 0 121.7 0 104.2 0C86.7 0 69.3 0 52 0C34.7 0 17.3 0 8.7 0L0 0Z" fill="#654321"></path><path d="M0 22L8.7 22.2C17.3 22.3 34.7 22.7 52 22.3C69.3 22 86.7 21 104.2 20.3C121.7 19.7 139.3 19.3 156.8 18.2C174.3 17 191.7 15 209 14.5C226.3 14 243.7 15 261 16.3C278.3 17.7 295.7 19.3 313 19.8C330.3 20.3 347.7 19.7 365 18.2C382.3 16.7 399.7 14.3 417.2 13.8C434.7 13.3 452.3 14.7 469.8 15C487.3 15.3 504.7 14.7 522 15.7C539.3 16.7 556.7 19.3 574 19.3C591.3 19.3 608.7 16.7 626 16.3C643.3 16 660.7 18 678 17.8C695.3 17.7 712.7 15.3 730.2 14.8C747.7 14.3 765.3 15.7 782.8 16.3C800.3 17 817.7 17 835 17.3C852.3 17.7 869.7 18.3 887 19.2C904.3 20 921.7 21 939 20.3C956.3 19.7 973.7 17.3 991 16.2C1008.3 15 1025.7 15 1043.2 16.5C1060.7 18 1078.3 21 1095.8 20.5C1113.3 20 1130.7 16 1148 14.7C1165.3 13.3 1182.7 14.7 1191.3 15.3L1200 16L1200 0L1191.3 0C1182.7 0 1165.3 0 1148 0C1130.7 0 1113.3 0 1095.8 0C1078.3 0 1060.7 0 1043.2 0C1025.7 0 1008.3 0 991 0C973.7 0 956.3 0 939 0C921.7 0 904.3 0 887 0C869.7 0 852.3 0 835 0C817.7 0 800.3 0 782.8 0C765.3 0 747.7 0 730.2 0C712.7 0 695.3 0 678 0C660.7 0 643.3 0 626 0C608.7 0 591.3 0 574 0C556.7 0 539.3 0 522 0C504.7 0 487.3 0 469.8 0C452.3 0 434.7 0 417.2 0C399.7 0 382.3 0 365 0C347.7 0 330.3 0 313 0C295.7 0 278.3 0 261 0C243.7 0 226.3 0 209 0C191.7 0 174.3 0 156.8 0C139.3 0 121.7 0 104.2 0C86.7 0 69.3 0 52 0C34.7 0 17.3 0 8.7 0L0 0Z" fill="#654321"></path><path d="M0 15L8.7 14.2C17.3 13.3 34.7 11.7 52 11.7C69.3 11.7 86.7 13.3 104.2 13.7C121.7 14 139.3 13 156.8 14.2C174.3 15.3 191.7 18.7 209 18.3C226.3 18 243.7 14 261 12.3C278.3 10.7 295.7 11.3 313 13.3C330.3 15.3 347.7 18.7 365 18.5C382.3 18.3 399.7 14.7 417.2 12.5C434.7 10.3 452.3 9.7 469.8 10.2C487.3 10.7 504.7 12.3 522 12.5C539.3 12.7 556.7 11.3 574 11.3C591.3 11.3 608.7 12.7 626 13.7C643.3 14.7 660.7 15.3 678 16.5C695.3 17.7 712.7 19.3 730.2 19C747.7 18.7 765.3 16.3 782.8 15.7C800.3 15 817.7 16 835 16C852.3 16 869.7 15 887 14.2C904.3 13.3 921.7 12.7 939 12.3C956.3 12 973.7 12 991 12.5C1008.3 13 1025.7 14 1043.2 15.2C1060.7 16.3 1078.3 17.7 1095.8 17.8C1113.3 18 1130.7 17 1148 15.5C1165.3 14 1182.7 12 1191.3 11L1200 10L1200 0L1191.3 0C1182.7 0 1165.3 0 1148 0C1130.7 0 1113.3 0 1095.8 0C1078.3 0 1060.7 0 1043.2 0C1025.7 0 1008.3 0 991 0C973.7 0 956.3 0 939 0C921.7 0 904.3 0 887 0C869.7 0 852.3 0 835 0C817.7 0 800.3 0 782.8 0C765.3 0 747.7 0 730.2 0C712.7 0 695.3 0 678 0C660.7 0 643.3 0 626 0C608.7 0 591.3 0 574 0C556.7 0 539.3 0 522 0C504.7 0 487.3 0 469.8 0C452.3 0 434.7 0 417.2 0C399.7 0 382.3 0 365 0C347.7 0 330.3 0 313 0C295.7 0 278.3 0 261 0C243.7 0 226.3 0 209 0C191.7 0 174.3 0 156.8 0C139.3 0 121.7 0 104.2 0C86.7 0 69.3 0 52 0C34.7 0 17.3 0 8.7 0L0 0Z" fill="#654321"></path><path d="M0 12L8.7 11.5C17.3 11 34.7 10 52 9.5C69.3 9 86.7 9 104.2 9C121.7 9 139.3 9 156.8 8.8C174.3 8.7 191.7 8.3 209 9.3C226.3 10.3 243.7 12.7 261 14C278.3 15.3 295.7 15.7 313 16.2C330.3 16.7 347.7 17.3 365 16.3C382.3 15.3 399.7 12.7 417.2 12.3C434.7 12 452.3 14 469.8 15.3C487.3 16.7 504.7 17.3 522 17C539.3 16.7 556.7 15.3 574 13.8C591.3 12.3 608.7 10.7 626 10.7C643.3 10.7 660.7 12.3 678 13.2C695.3 14 712.7 14 730.2 14.3C747.7 14.7 765.3 15.3 782.8 15.8C800.3 16.3 817.7 16.7 835 15.7C852.3 14.7 869.7 12.3 887 12C904.3 11.7 921.7 13.3 939 13.5C956.3 13.7 973.7 12.3 991 11.5C1008.3 10.7 1025.7 10.3 1043.2 10.5C1060.7 10.7 1078.3 11.3 1095.8 12C1113.3 12.7 1130.7 13.3 1148 12.8C1165.3 12.3 1182.7 10.7 1191.3 9.8L1200 9L1200 0L1191.3 0C1182.7 0 1165.3 0 1148 0C1130.7 0 1113.3 0 1095.8 0C1078.3 0 1060.7 0 1043.2 0C1025.7 0 1008.3 0 991 0C973.7 0 956.3 0 939 0C921.7 0 904.3 0 887 0C869.7 0 852.3 0 835 0C817.7 0 800.3 0 782.8 0C765.3 0 747.7 0 730.2 0C712.7 0 695.3 0 678 0C660.7 0 643.3 0 626 0C608.7 0 591.3 0 574 0C556.7 0 539.3 0 522 0C504.7 0 487.3 0 469.8 0C452.3 0 434.7 0 417.2 0C399.7 0 382.3 0 365 0C347.7 0 330.3 0 313 0C295.7 0 278.3 0 261 0C243.7 0 226.3 0 209 0C191.7 0 174.3 0 156.8 0C139.3 0 121.7 0 104.2 0C86.7 0 69.3 0 52 0C34.7 0 17.3 0 8.7 0L0 0Z" fill="#654321"></path><path d="M0 5L8.7 5.7C17.3 6.3 34.7 7.7 52 8.3C69.3 9 86.7 9 104.2 8.7C121.7 8.3 139.3 7.7 156.8 7.3C174.3 7 191.7 7 209 7.8C226.3 8.7 243.7 10.3 261 10.7C278.3 11 295.7 10 313 9C330.3 8 347.7 7 365 7.8C382.3 8.7 399.7 11.3 417.2 11.5C434.7 11.7 452.3 9.3 469.8 8.2C487.3 7 504.7 7 522 7.5C539.3 8 556.7 9 574 10C591.3 11 608.7 12 626 12.3C643.3 12.7 660.7 12.3 678 11.7C695.3 11 712.7 10 730.2 9C747.7 8 765.3 7 782.8 7.2C800.3 7.3 817.7 8.7 835 8.5C852.3 8.3 869.7 6.7 887 6.7C904.3 6.7 921.7 8.3 939 8.3C956.3 8.3 973.7 6.7 991 7.3C1008.3 8 1025.7 11 1043.2 12.3C1060.7 13.7 1078.3 13.3 1095.8 13C1113.3 12.7 1130.7 12.3 1148 11.7C1165.3 11 1182.7 10 1191.3 9.5L1200 9L1200 0L1191.3 0C1182.7 0 1165.3 0 1148 0C1130.7 0 1113.3 0 1095.8 0C1078.3 0 1060.7 0 1043.2 0C1025.7 0 1008.3 0 991 0C973.7 0 956.3 0 939 0C921.7 0 904.3 0 887 0C869.7 0 852.3 0 835 0C817.7 0 800.3 0 782.8 0C765.3 0 747.7 0 730.2 0C712.7 0 695.3 0 678 0C660.7 0 643.3 0 626 0C608.7 0 591.3 0 574 0C556.7 0 539.3 0 522 0C504.7 0 487.3 0 469.8 0C452.3 0 434.7 0 417.2 0C399.7 0 382.3 0 365 0C347.7 0 330.3 0 313 0C295.7 0 278.3 0 261 0C243.7 0 226.3 0 209 0C191.7 0 174.3 0 156.8 0C139.3 0 121.7 0 104.2 0C86.7 0 69.3 0 52 0C34.7 0 17.3 0 8.7 0L0 0Z" fill="#654321"></path><path d="M0 3L8.7 3.2C17.3 3.3 34.7 3.7 52 4.7C69.3 5.7 86.7 7.3 104.2 8C121.7 8.7 139.3 8.3 156.8 7.3C174.3 6.3 191.7 4.7 209 4.5C226.3 4.3 243.7 5.7 261 6.8C278.3 8 295.7 9 313 9C330.3 9 347.7 8 365 7.3C382.3 6.7 399.7 6.3 417.2 6.5C434.7 6.7 452.3 7.3 469.8 7.2C487.3 7 504.7 6 522 5.5C539.3 5 556.7 5 574 5.8C591.3 6.7 608.7 8.3 626 8.3C643.3 8.3 660.7 6.7 678 6.5C695.3 6.3 712.7 7.7 730.2 7.7C747.7 7.7 765.3 6.3 782.8 6.5C800.3 6.7 817.7 8.3 835 8.2C852.3 8 869.7 6 887 5.8C904.3 5.7 921.7 7.3 939 8C956.3 8.7 973.7 8.3 991 8.3C1008.3 8.3 1025.7 8.7 1043.2 8.5C1060.7 8.3 1078.3 7.7 1095.8 7.5C1113.3 7.3 1130.7 7.7 1148 7.5C1165.3 7.3 1182.7 6.7 1191.3 6.3L1200 6L1200 0L1191.3 0C1182.7 0 1165.3 0 1148 0C1130.7 0 1113.3 0 1095.8 0C1078.3 0 1060.7 0 1043.2 0C1025.7 0 1008.3 0 991 0C973.7 0 956.3 0 939 0C921.7 0 904.3 0 887 0C869.7 0 852.3 0 835 0C817.7 0 800.3 0 782.8 0C765.3 0 747.7 0 730.2 0C712.7 0 695.3 0 678 0C660.7 0 643.3 0 626 0C608.7 0 591.3 0 574 0C556.7 0 539.3 0 522 0C504.7 0 487.3 0 469.8 0C452.3 0 434.7 0 417.2 0C399.7 0 382.3 0 365 0C347.7 0 330.3 0 313 0C295.7 0 278.3 0 261 0C243.7 0 226.3 0 209 0C191.7 0 174.3 0 156.8 0C139.3 0 121.7 0 104.2 0C86.7 0 69.3 0 52 0C34.7 0 17.3 0 8.7 0L0 0Z" fill="#654321"></path><path d="M0 4L8.7 3.8C17.3 3.7 34.7 3.3 52 3.7C69.3 4 86.7 5 104.2 5C121.7 5 139.3 4 156.8 3.3C174.3 2.7 191.7 2.3 209 2.7C226.3 3 243.7 4 261 4.3C278.3 4.7 295.7 4.3 313 4.2C330.3 4 347.7 4 365 3.5C382.3 3 399.7 2 417.2 1.8C434.7 1.7 452.3 2.3 469.8 2.8C487.3 3.3 504.7 3.7 522 4C539.3 4.3 556.7 4.7 574 4.8C591.3 5 608.7 5 626 4.3C643.3 3.7 660.7 2.3 678 2.2C695.3 2 712.7 3 730.2 3.3C747.7 3.7 765.3 3.3 782.8 3C800.3 2.7 817.7 2.3 835 2.8C852.3 3.3 869.7 4.7 887 5.2C904.3 5.7 921.7 5.3 939 4.8C956.3 4.3 973.7 3.7 991 3.3C1008.3 3 1025.7 3 1043.2 3.3C1060.7 3.7 1078.3 4.3 1095.8 4.2C1113.3 4 1130.7 3 1148 3C1165.3 3 1182.7 4 1191.3 4.5L1200 5L1200 0L1191.3 0C1182.7 0 1165.3 0 1148 0C1130.7 0 1113.3 0 1095.8 0C1078.3 0 1060.7 0 1043.2 0C1025.7 0 1008.3 0 991 0C973.7 0 956.3 0 939 0C921.7 0 904.3 0 887 0C869.7 0 852.3 0 835 0C817.7 0 800.3 0 782.8 0C765.3 0 747.7 0 730.2 0C712.7 0 695.3 0 678 0C660.7 0 643.3 0 626 0C608.7 0 591.3 0 574 0C556.7 0 539.3 0 522 0C504.7 0 487.3 0 469.8 0C452.3 0 434.7 0 417.2 0C399.7 0 382.3 0 365 0C347.7 0 330.3 0 313 0C295.7 0 278.3 0 261 0C243.7 0 226.3 0 209 0C191.7 0 174.3 0 156.8 0C139.3 0 121.7 0 104.2 0C86.7 0 69.3 0 52 0C34.7 0 17.3 0 8.7 0L0 0Z" fill="#654321"></path></svg>