<svg id="visual" viewBox="0 0 1200 60" width="1200" height="60" xmlns="http://www.w3.org/2000/svg" xmlns:xlink="http://www.w3.org/1999/xlink" version="1.1"><rect x="0" y="0" width="1200" height="60" fill="#D2B48C"></rect><path d="M0 15L6.5 19C13 23 26 31 38.8 36.5C51.7 42 64.3 45 77.2 47C90 49 103 50 116 47.3C129 44.7 142 38.3 155 35.8C168 33.3 181 34.7 193.8 37.7C206.7 40.7 219.3 45.3 232.2 40.7C245 36 258 22 271 19.5C284 17 297 26 309.8 28.3C322.7 30.7 335.3 26.3 348.2 26.5C361 26.7 374 31.3 387 30.5C400 29.7 413 23.3 426 25.8C439 28.3 452 39.7 464.8 41.2C477.7 42.7 490.3 34.3 503.2 29.8C516 25.3 529 24.7 542 24.3C555 24 568 24 580.8 25.3C593.7 26.7 606.3 29.3 619.2 31.5C632 33.7 645 35.3 658 38.8C671 42.3 684 47.7 696.8 43.8C709.7 40 722.3 27 735.2 19.7C748 12.3 761 10.7 774 14.2C787 17.7 800 26.3 813 26C826 25.7 839 16.3 851.8 17.7C864.7 19 877.3 31 890.2 35.2C903 39.3 916 35.7 929 35.7C942 35.7 955 39.3 967.8 38.7C980.7 38 993.3 33 1006.2 27.3C1019 21.7 1032 15.3 1045 19.2C1058 23 1071 37 1084 44C1097 51 1110 51 1122.8 45.3C1135.7 39.7 1148.3 28.3 1161.2 26.8C1174 25.3 1187 33.7 1193.5 37.8L1200 42L1200 0L1193.5 0C1187 0 1174 0 1161.2 0C1148.3 0 1135.7 0 1122.8 0C1110 0 1097 0 1084 0C1071 0 1058 0 1045 0C1032 0 1019 0 1006.2 0C993.3 0 980.7 0 967.8 0C955 0 942 0 929 0C916 0 903 0 890.2 0C877.3 0 864.7 0 851.8 0C839 0 826 0 813 0C800 0 787 0 774 0C761 0 748 0 735.2 0C722.3 0 709.7 0 696.8 0C684 0 671 0 658 0C645 0 632 0 619.2 0C606.3 0 593.7 0 580.8 0C568 0 555 0 542 0C529 0 516 0 503.2 0C490.3 0 477.7 0 464.8 0C452 0 439 0 426 0C413 0 400 0 387 0C374 0 361 0 348.2 0C335.3 0 322.7 0 309.8 0C297 0 284 0 271 0C258 0 245 0 232.2 0C219.3 0 206.7 0 193.8 0C181 0 168 0 155 0C142 0 129 0 116 0C103 0 90 0 77.2 0C64.3 0 51.7 0 38.8 0C26 0 13 0 6.5 0L0 0Z" fill="#654321" stroke-linecap="round" stroke-linejoin="miter"></path></svg>