<svg id="visual" viewBox="0 0 150 60" width="150" height="60" xmlns="http://www.w3.org/2000/svg" xmlns:xlink="http://www.w3.org/1999/xlink" version="1.1"><rect x="0" y="0" width="150" height="60" fill="#D2B48C"></rect><path d="M0 27L1.2 26.7C2.3 26.3 4.7 25.7 7 23.5C9.3 21.3 11.7 17.7 14 19.2C16.3 20.7 18.7 27.3 21.2 31C23.7 34.7 26.3 35.3 28.8 34.5C31.3 33.7 33.7 31.3 36 28.2C38.3 25 40.7 21 43 18.5C45.3 16 47.7 15 50 19C52.3 23 54.7 32 57 32.7C59.3 33.3 61.7 25.7 64 24.5C66.3 23.3 68.7 28.7 71.2 28.5C73.7 28.3 76.3 22.7 78.8 23.7C81.3 24.7 83.7 32.3 86 34.8C88.3 37.3 90.7 34.7 93 29.8C95.3 25 97.7 18 100 18.7C102.3 19.3 104.7 27.7 107 32C109.3 36.3 111.7 36.7 114 33.3C116.3 30 118.7 23 121.2 22.2C123.7 21.3 126.3 26.7 128.8 31.7C131.3 36.7 133.7 41.3 136 38.8C138.3 36.3 140.7 26.7 143 24.2C145.3 21.7 147.7 26.3 148.8 28.7L150 31L150 0L148.8 0C147.7 0 145.3 0 143 0C140.7 0 138.3 0 136 0C133.7 0 131.3 0 128.8 0C126.3 0 123.7 0 121.2 0C118.7 0 116.3 0 114 0C111.7 0 109.3 0 107 0C104.7 0 102.3 0 100 0C97.7 0 95.3 0 93 0C90.7 0 88.3 0 86 0C83.7 0 81.3 0 78.8 0C76.3 0 73.7 0 71.2 0C68.7 0 66.3 0 64 0C61.7 0 59.3 0 57 0C54.7 0 52.3 0 50 0C47.7 0 45.3 0 43 0C40.7 0 38.3 0 36 0C33.7 0 31.3 0 28.8 0C26.3 0 23.7 0 21.2 0C18.7 0 16.3 0 14 0C11.7 0 9.3 0 7 0C4.7 0 2.3 0 1.2 0L0 0Z" fill="#654321" stroke-linecap="round" stroke-linejoin="miter"></path></svg>