<svg id="visual" viewBox="0 0 100 100" width="100" height="100" xmlns="http://www.w3.org/2000/svg" xmlns:xlink="http://www.w3.org/1999/xlink" version="1.1">
<path d="M0 18L2.8 17.2C5.7 16.3 11.3 14.7 16.8 15C22.3 15.3 27.7 17.7 33.2 17.5C38.7 17.3 44.3 14.7 50 15.7C55.7 16.7 61.3 21.3 66.8 21.2C72.3 21 77.7 16 83.2 13.5C88.7 11 94.3 11 97.2 11L100 11L100 0L97.2 0C94.3 0 88.7 0 83.2 0C77.7 0 72.3 0 66.8 0C61.3 0 55.7 0 50 0C44.3 0 38.7 0 33.2 0C27.7 0 22.3 0 16.8 0C11.3 0 5.7 0 2.8 0L0 0Z" fill="#987654"></path>
<path d="M0 11L2.8 12.5C5.7 14 11.3 17 16.8 17.7C22.3 18.3 27.7 16.7 33.2 16.8C38.7 17 44.3 19 50 18.7C55.7 18.3 61.3 15.7 66.8 14C72.3 12.3 77.7 11.7 83.2 12.7C88.7 13.7 94.3 16.3 97.2 17.7L100 19L100 0L97.2 0C94.3 0 88.7 0 83.2 0C77.7 0 72.3 0 66.8 0C61.3 0 55.7 0 50 0C44.3 0 38.7 0 33.2 0C27.7 0 22.3 0 16.8 0C11.3 0 5.7 0 2.8 0L0 0Z" fill="#926f4d"></path>
<path d="M0 15L2.8 16C5.7 17 11.3 19 16.8 19.8C22.3 20.7 27.7 20.3 33.2 19.5C38.7 18.7 44.3 17.3 50 16.8C55.7 16.3 61.3 16.7 66.8 15.7C72.3 14.7 77.7 12.3 83.2 12.8C88.7 13.3 94.3 16.7 97.2 18.3L100 20L100 0L97.2 0C94.3 0 88.7 0 83.2 0C77.7 0 72.3 0 66.8 0C61.3 0 55.7 0 50 0C44.3 0 38.7 0 33.2 0C27.7 0 22.3 0 16.8 0C11.3 0 5.7 0 2.8 0L0 0Z" fill="#8c6947"></path>
<path d="M0 12L2.8 11.7C5.7 11.3 11.3 10.7 16.8 11.7C22.3 12.7 27.7 15.3 33.2 15.8C38.7 16.3 44.3 14.7 50 13.2C55.7 11.7 61.3 10.3 66.8 10.7C72.3 11 77.7 13 83.2 14C88.7 15 94.3 15 97.2 15L100 15L100 0L97.2 0C94.3 0 88.7 0 83.2 0C77.7 0 72.3 0 66.8 0C61.3 0 55.7 0 50 0C44.3 0 38.7 0 33.2 0C27.7 0 22.3 0 16.8 0C11.3 0 5.7 0 2.8 0L0 0Z" fill="#856341"></path>
<path d="M0 15L2.8 15.2C5.7 15.3 11.3 15.7 16.8 15.2C22.3 14.7 27.7 13.3 33.2 13C38.7 12.7 44.3 13.3 50 12.5C55.7 11.7 61.3 9.3 66.8 8.7C72.3 8 77.7 9 83.2 10.5C88.7 12 94.3 14 97.2 15L100 16L100 0L97.2 0C94.3 0 88.7 0 83.2 0C77.7 0 72.3 0 66.8 0C61.3 0 55.7 0 50 0C44.3 0 38.7 0 33.2 0C27.7 0 22.3 0 16.8 0C11.3 0 5.7 0 2.8 0L0 0Z" fill="#7f5c3a"></path>
<path d="M0 9L2.8 9C5.7 9 11.3 9 16.8 9.3C22.3 9.7 27.7 10.3 33.2 11.5C38.7 12.7 44.3 14.3 50 13.8C55.7 13.3 61.3 10.7 66.8 10.5C72.3 10.3 77.7 12.7 83.2 13.5C88.7 14.3 94.3 13.7 97.2 13.3L100 13L100 0L97.2 0C94.3 0 88.7 0 83.2 0C77.7 0 72.3 0 66.8 0C61.3 0 55.7 0 50 0C44.3 0 38.7 0 33.2 0C27.7 0 22.3 0 16.8 0C11.3 0 5.7 0 2.8 0L0 0Z" fill="#795634"></path>
<path d="M0 14L2.8 13.2C5.7 12.3 11.3 10.7 16.8 10.3C22.3 10 27.7 11 33.2 11.8C38.7 12.7 44.3 13.3 50 12.3C55.7 11.3 61.3 8.7 66.8 8.7C72.3 8.7 77.7 11.3 83.2 12.5C88.7 13.7 94.3 13.3 97.2 13.2L100 13L100 0L97.2 0C94.3 0 88.7 0 83.2 0C77.7 0 72.3 0 66.8 0C61.3 0 55.7 0 50 0C44.3 0 38.7 0 33.2 0C27.7 0 22.3 0 16.8 0C11.3 0 5.7 0 2.8 0L0 0Z" fill="#73502e"></path>
<path d="M0 11L2.8 10C5.7 9 11.3 7 16.8 6.7C22.3 6.3 27.7 7.7 33.2 8.2C38.7 8.7 44.3 8.3 50 7.7C55.7 7 61.3 6 66.8 5.5C72.3 5 77.7 5 83.2 5.8C88.7 6.7 94.3 8.3 97.2 9.2L100 10L100 0L97.2 0C94.3 0 88.7 0 83.2 0C77.7 0 72.3 0 66.8 0C61.3 0 55.7 0 50 0C44.3 0 38.7 0 33.2 0C27.7 0 22.3 0 16.8 0C11.3 0 5.7 0 2.8 0L0 0Z" fill="#6d4a28"></path>
<path d="M0 4L2.8 4.7C5.7 5.3 11.3 6.7 16.8 6.8C22.3 7 27.7 6 33.2 5.5C38.7 5 44.3 5 50 5.7C55.7 6.3 61.3 7.7 66.8 8.5C72.3 9.3 77.7 9.7 83.2 9.7C88.7 9.7 94.3 9.3 97.2 9.2L100 9L100 0L97.2 0C94.3 0 88.7 0 83.2 0C77.7 0 72.3 0 66.8 0C61.3 0 55.7 0 50 0C44.3 0 38.7 0 33.2 0C27.7 0 22.3 0 16.8 0C11.3 0 5.7 0 2.8 0L0 0Z" fill="#664422"></path>
<path d="M0 4L2.8 4C5.7 4 11.3 4 16.8 4.2C22.3 4.3 27.7 4.7 33.2 5.3C38.7 6 44.3 7 50 7C55.7 7 61.3 6 66.8 5.7C72.3 5.3 77.7 5.7 83.2 5.3C88.7 5 94.3 4 97.2 3.5L100 3L100 0L97.2 0C94.3 0 88.7 0 83.2 0C77.7 0 72.3 0 66.8 0C61.3 0 55.7 0 50 0C44.3 0 38.7 0 33.2 0C27.7 0 22.3 0 16.8 0C11.3 0 5.7 0 2.8 0L0 0Z" fill="#603e1c"></path>
<path d="M0 2L2.8 2.3C5.7 2.7 11.3 3.3 16.8 3.3C22.3 3.3 27.7 2.7 33.2 2.8C38.7 3 44.3 4 50 4.3C55.7 4.7 61.3 4.3 66.8 3.8C72.3 3.3 77.7 2.7 83.2 2.5C88.7 2.3 94.3 2.7 97.2 2.8L100 3L100 0L97.2 0C94.3 0 88.7 0 83.2 0C77.7 0 72.3 0 66.8 0C61.3 0 55.7 0 50 0C44.3 0 38.7 0 33.2 0C27.7 0 22.3 0 16.8 0C11.3 0 5.7 0 2.8 0L0 0Z" fill="#5a3816"></path>
<path d="M0 2L2.8 2C5.7 2 11.3 2 16.8 2C22.3 2 27.7 2 33.2 1.8C38.7 1.7 44.3 1.3 50 1.2C55.7 1 61.3 1 66.8 1C72.3 1 77.7 1 83.2 1.3C88.7 1.7 94.3 2.3 97.2 2.7L100 3L100 0L97.2 0C94.3 0 88.7 0 83.2 0C77.7 0 72.3 0 66.8 0C61.3 0 55.7 0 50 0C44.3 0 38.7 0 33.2 0C27.7 0 22.3 0 16.8 0C11.3 0 5.7 0 2.8 0L0 0Z" fill="#543210"></path>
</svg>