<svg id="visual" viewBox="0 0 150 150" width="150" height="150" xmlns="http://www.w3.org/2000/svg" xmlns:xlink="http://www.w3.org/1999/xlink" version="1.1">
<path d="M0 28L4.2 26.7C8.3 25.3 16.7 22.7 25 23.2C33.3 23.7 41.7 27.3 50 27.2C58.3 27 66.7 23 75 24.5C83.3 26 91.7 33 100 32.7C108.3 32.3 116.7 24.7 125 20.8C133.3 17 141.7 17 145.8 17L150 17L150 0L145.8 0C141.7 0 133.3 0 125 0C116.7 0 108.3 0 100 0C91.7 0 83.3 0 75 0C66.7 0 58.3 0 50 0C41.7 0 33.3 0 25 0C16.7 0 8.3 0 4.2 0L0 0Z" fill="#987654"></path>
<path d="M0 16L4.2 18.3C8.3 20.7 16.7 25.3 25 26.5C33.3 27.7 41.7 25.3 50 25.7C58.3 26 66.7 29 75 28.5C83.3 28 91.7 24 100 21.7C108.3 19.3 116.7 18.7 125 20C133.3 21.3 141.7 24.7 145.8 26.3L150 28L150 0L145.8 0C141.7 0 133.3 0 125 0C116.7 0 108.3 0 100 0C91.7 0 83.3 0 75 0C66.7 0 58.3 0 50 0C41.7 0 33.3 0 25 0C16.7 0 8.3 0 4.2 0L0 0Z" fill="#926f4d"></path>
<path d="M0 23L4.2 24.5C8.3 26 16.7 29 25 30.2C33.3 31.3 41.7 30.7 50 29.3C58.3 28 66.7 26 75 25.3C83.3 24.7 91.7 25.3 100 23.8C108.3 22.3 116.7 18.7 125 19.5C133.3 20.3 141.7 25.7 145.8 28.3L150 31L150 0L145.8 0C141.7 0 133.3 0 125 0C116.7 0 108.3 0 100 0C91.7 0 83.3 0 75 0C66.7 0 58.3 0 50 0C41.7 0 33.3 0 25 0C16.7 0 8.3 0 4.2 0L0 0Z" fill="#8c6947"></path>
<path d="M0 18L4.2 17.7C8.3 17.3 16.7 16.7 25 18.2C33.3 19.7 41.7 23.3 50 24C58.3 24.7 66.7 22.3 75 20C83.3 17.7 91.7 15.3 100 15.8C108.3 16.3 116.7 19.7 125 21.3C133.3 23 141.7 23 145.8 23L150 23L150 0L145.8 0C141.7 0 133.3 0 125 0C116.7 0 108.3 0 100 0C91.7 0 83.3 0 75 0C66.7 0 58.3 0 50 0C41.7 0 33.3 0 25 0C16.7 0 8.3 0 4.2 0L0 0Z" fill="#856341"></path>
<path d="M0 23L4.2 23.2C8.3 23.3 16.7 23.7 25 22.8C33.3 22 41.7 20 50 19.7C58.3 19.3 66.7 20.7 75 19.7C83.3 18.7 91.7 15.3 100 14.2C108.3 13 116.7 14 125 16C133.3 18 141.7 21 145.8 22.5L150 24L150 0L145.8 0C141.7 0 133.3 0 125 0C116.7 0 108.3 0 100 0C91.7 0 83.3 0 75 0C66.7 0 58.3 0 50 0C41.7 0 33.3 0 25 0C16.7 0 8.3 0 4.2 0L0 0Z" fill="#7f5c3a"></path>
<path d="M0 13L4.2 13.2C8.3 13.3 16.7 13.7 25 14.3C33.3 15 41.7 16 50 17.7C58.3 19.3 66.7 21.7 75 20.8C83.3 20 91.7 16 100 15.8C108.3 15.7 116.7 19.3 125 20.7C133.3 22 141.7 21 145.8 20.5L150 20L150 0L145.8 0C141.7 0 133.3 0 125 0C116.7 0 108.3 0 100 0C91.7 0 83.3 0 75 0C66.7 0 58.3 0 50 0C41.7 0 33.3 0 25 0C16.7 0 8.3 0 4.2 0L0 0Z" fill="#795634"></path>
<path d="M0 21L4.2 19.7C8.3 18.3 16.7 15.7 25 15.2C33.3 14.7 41.7 16.3 50 17.7C58.3 19 66.7 20 75 18.7C83.3 17.3 91.7 13.7 100 13.7C108.3 13.7 116.7 17.3 125 19C133.3 20.7 141.7 20.3 145.8 20.2L150 20L150 0L145.8 0C141.7 0 133.3 0 125 0C116.7 0 108.3 0 100 0C91.7 0 83.3 0 75 0C66.7 0 58.3 0 50 0C41.7 0 33.3 0 25 0C16.7 0 8.3 0 4.2 0L0 0Z" fill="#73502e"></path>
<path d="M0 17L4.2 15.5C8.3 14 16.7 11 25 10.5C33.3 10 41.7 12 50 12.8C58.3 13.7 66.7 13.3 75 12.3C83.3 11.3 91.7 9.7 100 8.8C108.3 8 116.7 8 125 9.2C133.3 10.3 141.7 12.7 145.8 13.8L150 15L150 0L145.8 0C141.7 0 133.3 0 125 0C116.7 0 108.3 0 100 0C91.7 0 83.3 0 75 0C66.7 0 58.3 0 50 0C41.7 0 33.3 0 25 0C16.7 0 8.3 0 4.2 0L0 0Z" fill="#6d4a28"></path>
<path d="M0 7L4.2 7.8C8.3 8.7 16.7 10.3 25 10.5C33.3 10.7 41.7 9.3 50 8.7C58.3 8 66.7 8 75 9.2C83.3 10.3 91.7 12.7 100 13.8C108.3 15 116.7 15 125 15C133.3 15 141.7 15 145.8 15L150 15L150 0L145.8 0C141.7 0 133.3 0 125 0C116.7 0 108.3 0 100 0C91.7 0 83.3 0 75 0C66.7 0 58.3 0 50 0C41.7 0 33.3 0 25 0C16.7 0 8.3 0 4.2 0L0 0Z" fill="#664422"></path>
<path d="M0 6L4.2 6.2C8.3 6.3 16.7 6.7 25 7C33.3 7.3 41.7 7.7 50 8.5C58.3 9.3 66.7 10.7 75 10.7C83.3 10.7 91.7 9.3 100 8.8C108.3 8.3 116.7 8.7 125 8.2C133.3 7.7 141.7 6.3 145.8 5.7L150 5L150 0L145.8 0C141.7 0 133.3 0 125 0C116.7 0 108.3 0 100 0C91.7 0 83.3 0 75 0C66.7 0 58.3 0 50 0C41.7 0 33.3 0 25 0C16.7 0 8.3 0 4.2 0L0 0Z" fill="#603e1c"></path>
<path d="M0 3L4.2 3.5C8.3 4 16.7 5 25 5.2C33.3 5.3 41.7 4.7 50 5.2C58.3 5.7 66.7 7.3 75 7.8C83.3 8.3 91.7 7.7 100 6.8C108.3 6 116.7 5 125 4.7C133.3 4.3 141.7 4.7 145.8 4.8L150 5L150 0L145.8 0C141.7 0 133.3 0 125 0C116.7 0 108.3 0 100 0C91.7 0 83.3 0 75 0C66.7 0 58.3 0 50 0C41.7 0 33.3 0 25 0C16.7 0 8.3 0 4.2 0L0 0Z" fill="#5a3816"></path>
<path d="M0 3L4.2 3.2C8.3 3.3 16.7 3.7 25 3.7C33.3 3.7 41.7 3.3 50 3.2C58.3 3 66.7 3 75 2.8C83.3 2.7 91.7 2.3 100 2.2C108.3 2 116.7 2 125 2.5C133.3 3 141.7 4 145.8 4.5L150 5L150 0L145.8 0C141.7 0 133.3 0 125 0C116.7 0 108.3 0 100 0C91.7 0 83.3 0 75 0C66.7 0 58.3 0 50 0C41.7 0 33.3 0 25 0C16.7 0 8.3 0 4.2 0L0 0Z" fill="#543210"></path>
</svg>