<svg id="visual" viewBox="0 0 900 900" width="900" height="900" xmlns="http://www.w3.org/2000/svg" xmlns:xlink="http://www.w3.org/1999/xlink" version="1.1">
<path d="M0 171L25 163.2C50 155.3 100 139.7 150 142.8C200 146 250 168 300 167C350 166 400 142 450 151.3C500 160.7 550 203.3 600 202C650 200.7 700 155.3 750 132.3C800 109.3 850 108.7 875 108.3L900 108L900 0L875 0C850 0 800 0 750 0C700 0 650 0 600 0C550 0 500 0 450 0C400 0 350 0 300 0C250 0 200 0 150 0C100 0 50 0 25 0L0 0Z" fill="#987654"></path>
<path d="M0 104L25 117.8C50 131.7 100 159.3 150 165.8C200 172.3 250 157.7 300 159.7C350 161.7 400 180.3 450 177.3C500 174.3 550 149.7 600 135C650 120.3 700 115.7 750 124C800 132.3 850 153.7 875 164.3L900 175L900 0L875 0C850 0 800 0 750 0C700 0 650 0 600 0C550 0 500 0 450 0C400 0 350 0 300 0C250 0 200 0 150 0C100 0 50 0 25 0L0 0Z" fill="#926f4d"></path>
<path d="M0 145L25 153.7C50 162.3 100 179.7 150 186.3C200 193 250 189 300 181.2C350 173.3 400 161.7 450 157.8C500 154 550 158 600 149.2C650 140.3 700 118.7 750 123C800 127.3 850 157.7 875 172.8L900 188L900 0L875 0C850 0 800 0 750 0C700 0 650 0 600 0C550 0 500 0 450 0C400 0 350 0 300 0C250 0 200 0 150 0C100 0 50 0 25 0L0 0Z" fill="#8c6947"></path>
<path d="M0 113L25 110.8C50 108.7 100 104.3 150 113.5C200 122.7 250 145.3 300 149.8C350 154.3 400 140.7 450 126.8C500 113 550 99 600 101.8C650 104.7 700 124.3 750 134.3C800 144.3 850 144.7 875 144.8L900 145L900 0L875 0C850 0 800 0 750 0C700 0 650 0 600 0C550 0 500 0 450 0C400 0 350 0 300 0C250 0 200 0 150 0C100 0 50 0 25 0L0 0Z" fill="#856341"></path>
<path d="M0 145L25 146C50 147 100 149 150 143.5C200 138 250 125 300 122.7C350 120.3 400 128.7 450 122.5C500 116.3 550 95.7 600 88.7C650 81.7 700 88.3 750 101C800 113.7 850 132.3 875 141.7L900 151L900 0L875 0C850 0 800 0 750 0C700 0 650 0 600 0C550 0 500 0 450 0C400 0 350 0 300 0C250 0 200 0 150 0C100 0 50 0 25 0L0 0Z" fill="#7f5c3a"></path>
<path d="M0 85L25 85.7C50 86.3 100 87.7 150 91C200 94.3 250 99.7 300 109.7C350 119.7 400 134.3 450 129.7C500 125 550 101 600 100C650 99 700 121 750 128.7C800 136.3 850 129.7 875 126.3L900 123L900 0L875 0C850 0 800 0 750 0C700 0 650 0 600 0C550 0 500 0 450 0C400 0 350 0 300 0C250 0 200 0 150 0C100 0 50 0 25 0L0 0Z" fill="#795634"></path>
<path d="M0 132L25 124.2C50 116.3 100 100.7 150 97.3C200 94 250 103 300 110.7C350 118.3 400 124.7 450 116.7C500 108.7 550 86.3 600 86.8C650 87.3 700 110.7 750 121C800 131.3 850 128.7 875 127.3L900 126L900 0L875 0C850 0 800 0 750 0C700 0 650 0 600 0C550 0 500 0 450 0C400 0 350 0 300 0C250 0 200 0 150 0C100 0 50 0 25 0L0 0Z" fill="#73502e"></path>
<path d="M0 108L25 98.7C50 89.3 100 70.7 150 67.8C200 65 250 78 300 82.8C350 87.7 400 84.3 450 77.8C500 71.3 550 61.7 600 56.8C650 52 700 52 750 59.5C800 67 850 82 875 89.5L900 97L900 0L875 0C850 0 800 0 750 0C700 0 650 0 600 0C550 0 500 0 450 0C400 0 350 0 300 0C250 0 200 0 150 0C100 0 50 0 25 0L0 0Z" fill="#6d4a28"></path>
<path d="M0 46L25 51.2C50 56.3 100 66.7 150 67.7C200 68.7 250 60.3 300 56.7C350 53 400 54 450 60.8C500 67.7 550 80.3 600 87.2C650 94 700 95 750 94.8C800 94.7 850 93.3 875 92.7L900 92L900 0L875 0C850 0 800 0 750 0C700 0 650 0 600 0C550 0 500 0 450 0C400 0 350 0 300 0C250 0 200 0 150 0C100 0 50 0 25 0L0 0Z" fill="#664422"></path>
<path d="M0 41L25 42C50 43 100 45 150 46.5C200 48 250 49 300 53.8C350 58.7 400 67.3 450 67.5C500 67.7 550 59.3 600 56.7C650 54 700 57 750 54.7C800 52.3 850 44.7 875 40.8L900 37L900 0L875 0C850 0 800 0 750 0C700 0 650 0 600 0C550 0 500 0 450 0C400 0 350 0 300 0C250 0 200 0 150 0C100 0 50 0 25 0L0 0Z" fill="#603e1c"></path>
<path d="M0 25L25 28C50 31 100 37 150 37.5C200 38 250 33 300 35.2C350 37.3 400 46.7 450 49.5C500 52.3 550 48.7 600 44.2C650 39.7 700 34.3 750 33.2C800 32 850 35 875 36.5L900 38L900 0L875 0C850 0 800 0 750 0C700 0 650 0 600 0C550 0 500 0 450 0C400 0 350 0 300 0C250 0 200 0 150 0C100 0 50 0 25 0L0 0Z" fill="#5a3816"></path>
<path d="M0 24L25 24.5C50 25 100 26 150 26.2C200 26.3 250 25.7 300 24.5C350 23.3 400 21.7 450 20.5C500 19.3 550 18.7 600 18.3C650 18 700 18 750 20.8C800 23.7 850 29.3 875 32.2L900 35L900 0L875 0C850 0 800 0 750 0C700 0 650 0 600 0C550 0 500 0 450 0C400 0 350 0 300 0C250 0 200 0 150 0C100 0 50 0 25 0L0 0Z" fill="#543210"></path>
</svg>